<svg width="45" height="45" viewBox="0 0 45 45" fill="none" xmlns="http://www.w3.org/2000/svg">
<path d="M12.7581 11.8428C12.3919 11.68 11.8832 11.5884 11.2218 11.5884H7.44726V15.6275H11.171C11.8323 15.6275 12.3512 15.536 12.7276 15.363C13.3991 15.0374 13.7348 14.4067 13.7348 13.4706C13.7348 12.6872 13.4093 12.1378 12.7581 11.8428Z" fill="black"/>
<path d="M12.7991 8.69875C13.2061 8.45457 13.4197 8.00691 13.4197 7.37612C13.4197 6.67411 13.145 6.2061 12.5956 5.98227C12.1276 5.81948 11.5172 5.74826 10.7846 5.74826H7.45769V9.08537H11.1814C11.8427 9.08537 12.3921 8.96328 12.8093 8.70893L12.7991 8.69875Z" fill="black"/>
<path d="M3.56093 0L0 3.56093V21.3656H17.8047L21.3656 17.8047V0H3.56093ZM16.248 16.0954C15.9631 16.5634 15.5969 16.9704 15.1696 17.2858C14.6812 17.6521 14.1115 17.9064 13.4501 18.0488C12.7888 18.1811 12.0665 18.2523 11.2932 18.2523H4.42573V3.1031H11.7816C13.6435 3.13362 14.9559 3.67285 15.7291 4.72078C16.1972 5.36175 16.4312 6.13498 16.4312 7.0303C16.4312 7.92562 16.1972 8.69885 15.7291 9.25843C15.4646 9.57383 15.0882 9.8587 14.5795 10.1232C15.3527 10.4081 15.9428 10.8456 16.3294 11.456C16.716 12.0665 16.9195 12.8092 16.9195 13.674C16.9195 14.5388 16.6957 15.3731 16.2379 16.0852L16.248 16.0954Z" fill="black"/>
<path d="M27.1953 0L23.6344 3.56093V21.3656H41.4391L45 17.8047V0H27.1953ZM41.3577 18.2523H39.2618L38.9464 16.3599C38.336 17.0823 37.7866 17.591 37.2982 17.8861C36.4639 18.4049 35.4364 18.6593 34.2155 18.6593C32.2112 18.6593 30.563 17.9675 29.281 16.5736C27.9482 15.1798 27.2767 13.267 27.2767 10.8354C27.2767 8.4038 27.9482 6.41986 29.3014 4.93444C30.6545 3.45919 32.435 2.71649 34.6529 2.71649C36.5759 2.71649 38.1223 3.20484 39.2923 4.18155C40.4624 5.15827 41.1339 6.37916 41.2966 7.83405H38.1834C37.9392 6.7963 37.3593 6.07393 36.4232 5.66697C35.9044 5.44314 35.3244 5.33123 34.6835 5.33123C33.4626 5.33123 32.4655 5.78906 31.6821 6.7149C30.8987 7.64075 30.5019 9.02442 30.5019 10.8761C30.5019 12.7278 30.9292 14.0606 31.7737 14.8338C32.6283 15.6071 33.5847 15.9937 34.6733 15.9937C35.7619 15.9937 36.6064 15.6885 37.288 15.078C37.9697 14.4676 38.3868 13.6638 38.5395 12.6667H35.0396V10.1334H41.3475V18.2625L41.3577 18.2523Z" fill="black"/>
<path d="M3.56093 23.6344L0 27.1953V45H17.8047L21.3656 41.4391V23.6344H3.56093ZM12.2496 41.8867H9.10581V26.7375H12.2496V41.8867Z" fill="black"/>
<path d="M27.1953 23.6344L23.6344 27.1953V45H41.4391L45 41.4391V23.6344H27.1953ZM40.4725 41.8867H37.3084L31.1225 31.1225V41.8867H28.172V26.7375H31.4888L37.522 37.3186V26.7375H40.4725V41.8867Z" fill="black"/>
</svg>
