<svg width="24" height="1552" viewBox="0 0 24 1552" fill="none" xmlns="http://www.w3.org/2000/svg">
<g filter="url(#filter0_d_606_130)">
<path d="M11.4019 1543.71C11.7927 1544.1 12.4258 1544.1 12.8161 1543.71L19.1755 1537.34C19.5657 1536.95 19.5653 1536.31 19.1745 1535.92C18.7837 1535.53 18.1505 1535.53 17.7603 1535.92L12.1075 1541.59L6.44654 1535.93C6.05574 1535.54 5.42257 1535.54 5.03233 1535.93C4.64209 1536.32 4.64254 1536.96 5.03335 1537.35L11.4019 1543.71ZM10 0.000718391L10.0014 1.99942L12.0014 1.99799L12 -0.000718391L10 0.000718391ZM10.0043 5.99683L10.0072 9.99424L12.0072 9.99281L12.0043 5.9954L10.0043 5.99683ZM10.0101 13.9917L10.0129 17.9891L12.0129 17.9876L12.0101 13.9902L10.0101 13.9917ZM10.0158 21.9865L10.0187 25.9839L12.0187 25.9824L12.0158 21.985L10.0158 21.9865ZM10.0215 29.9813L10.0244 33.9787L12.0244 33.9773L12.0215 29.9799L10.0215 29.9813ZM10.0273 37.9761L10.0302 41.9735L12.0302 41.9721L12.0273 37.9747L10.0273 37.9761ZM10.033 45.9709L10.0359 49.9683L12.0359 49.9669L12.033 45.9695L10.033 45.9709ZM10.0388 53.9657L10.0416 57.9632L12.0416 57.9617L12.0388 53.9643L10.0388 53.9657ZM10.0445 61.9606L10.0474 65.958L12.0474 65.9565L12.0445 61.9591L10.0445 61.9606ZM10.0503 69.9554L10.0531 73.9528L12.0531 73.9514L12.0503 69.9539L10.0503 69.9554ZM10.056 77.9502L10.0589 81.9476L12.0589 81.9462L12.056 77.9488L10.056 77.9502ZM10.0617 85.945L10.0646 89.9424L12.0646 89.941L12.0617 85.9436L10.0617 85.945ZM10.0675 93.9399L10.0704 97.9373L12.0704 97.9358L12.0675 93.9384L10.0675 93.9399ZM10.0732 101.935L10.0761 105.932L12.0761 105.931L12.0732 101.933L10.0732 101.935ZM10.079 109.93L10.0818 113.927L12.0818 113.925L12.079 109.928L10.079 109.93ZM10.0847 117.924L10.0876 121.922L12.0876 121.92L12.0847 117.923L10.0847 117.924ZM10.0905 125.919L10.0933 129.917L12.0933 129.915L12.0905 125.918L10.0905 125.919ZM10.0962 133.914L10.0991 137.911L12.0991 137.91L12.0962 133.913L10.0962 133.914ZM10.1019 141.909L10.1048 145.906L12.1048 145.905L12.1019 141.907L10.1019 141.909ZM10.1077 149.904L10.1106 153.901L12.1106 153.9L12.1077 149.902L10.1077 149.904ZM10.1134 157.898L10.1163 161.896L12.1163 161.894L12.1134 157.897L10.1134 157.898ZM10.1192 165.893L10.122 169.891L12.122 169.889L12.1192 165.892L10.1192 165.893ZM10.1249 173.888L10.1278 177.885L12.1278 177.884L12.1249 173.887L10.1249 173.888ZM10.1307 181.883L10.1335 185.88L12.1335 185.879L12.1307 181.881L10.1307 181.883ZM10.1364 189.878L10.1393 193.875L12.1393 193.874L12.1364 189.876L10.1364 189.878ZM10.1421 197.872L10.145 201.87L12.145 201.868L12.1421 197.871L10.1421 197.872ZM10.1479 205.867L10.1508 209.865L12.1508 209.863L12.1479 205.866L10.1479 205.867ZM10.1536 213.862L10.1565 217.859L12.1565 217.858L12.1536 213.861L10.1536 213.862ZM10.1594 221.857L10.1623 225.854L12.1623 225.853L12.1594 221.855L10.1594 221.857ZM10.1651 229.852L10.168 233.849L12.168 233.848L12.1651 229.85L10.1651 229.852ZM10.1709 237.847L10.1737 241.844L12.1737 241.842L12.1709 237.845L10.1709 237.847ZM10.1766 245.841L10.1795 249.839L12.1795 249.837L12.1766 245.84L10.1766 245.841ZM10.1824 253.836L10.1852 257.834L12.1852 257.832L12.1824 253.835L10.1824 253.836ZM10.1881 261.831L10.191 265.828L12.191 265.827L12.1881 261.83L10.1881 261.831ZM10.1938 269.826L10.1967 273.823L12.1967 273.822L12.1938 269.824L10.1938 269.826ZM10.1996 277.821L10.2025 281.818L12.2025 281.817L12.1996 277.819L10.1996 277.821ZM10.2053 285.815L10.2082 289.813L12.2082 289.811L12.2053 285.814L10.2053 285.815ZM10.2111 293.81L10.2139 297.808L12.2139 297.806L12.2111 293.809L10.2111 293.81ZM10.2168 301.805L10.2197 305.802L12.2197 305.801L12.2168 301.804L10.2168 301.805ZM10.2226 309.8L10.2254 313.797L12.2254 313.796L12.2226 309.798L10.2226 309.8ZM10.2283 317.795L10.2312 321.792L12.2312 321.791L12.2283 317.793L10.2283 317.795ZM10.234 325.789L10.2369 329.787L12.2369 329.785L12.234 325.788L10.234 325.789ZM10.2398 333.784L10.2427 337.782L12.2427 337.78L12.2398 333.783L10.2398 333.784ZM10.2455 341.779L10.2484 345.776L12.2484 345.775L12.2455 341.778L10.2455 341.779ZM10.2513 349.774L10.2541 353.771L12.2541 353.77L12.2513 349.772L10.2513 349.774ZM10.257 357.769L10.2599 361.766L12.2599 361.765L12.257 357.767L10.257 357.769ZM10.2628 365.763L10.2656 369.761L12.2656 369.759L12.2628 365.762L10.2628 365.763ZM10.2685 373.758L10.2714 377.756L12.2714 377.754L12.2685 373.757L10.2685 373.758ZM10.2742 381.753L10.2771 385.751L12.2771 385.749L12.2742 381.752L10.2742 381.753ZM10.28 389.748L10.2829 393.745L12.2829 393.744L12.28 389.746L10.28 389.748ZM10.2857 397.743L10.2886 401.74L12.2886 401.739L12.2857 397.741L10.2857 397.743ZM10.2915 405.738L10.2943 409.735L12.2943 409.733L12.2915 405.736L10.2915 405.738ZM10.2972 413.732L10.3001 417.73L12.3001 417.728L12.2972 413.731L10.2972 413.732ZM10.303 421.727L10.3058 425.725L12.3058 425.723L12.303 421.726L10.303 421.727ZM10.3087 429.722L10.3116 433.719L12.3116 433.718L12.3087 429.721L10.3087 429.722ZM10.3145 437.717L10.3173 441.714L12.3173 441.713L12.3145 437.715L10.3145 437.717ZM10.3202 445.712L10.3231 449.709L12.3231 449.708L12.3202 445.71L10.3202 445.712ZM10.3259 453.706L10.3288 457.704L12.3288 457.702L12.3259 453.705L10.3259 453.706ZM10.3317 461.701L10.3346 465.699L12.3346 465.697L12.3317 461.7L10.3317 461.701ZM10.3374 469.696L10.3403 473.693L12.3403 473.692L12.3374 469.695L10.3374 469.696ZM10.3432 477.691L10.346 481.688L12.346 481.687L12.3432 477.689L10.3432 477.691ZM10.3489 485.686L10.3518 489.683L12.3518 489.682L12.3489 485.684L10.3489 485.686ZM10.3547 493.68L10.3575 497.678L12.3575 497.676L12.3547 493.679L10.3547 493.68ZM10.3604 501.675L10.3633 505.673L12.3633 505.671L12.3604 501.674L10.3604 501.675ZM10.3661 509.67L10.369 513.667L12.369 513.666L12.3661 509.669L10.3661 509.67ZM10.3719 517.665L10.3748 521.662L12.3748 521.661L12.3719 517.663L10.3719 517.665ZM10.3776 525.66L10.3805 529.657L12.3805 529.656L12.3776 525.658L10.3776 525.66ZM10.3834 533.655L10.3862 537.652L12.3862 537.651L12.3834 533.653L10.3834 533.655ZM10.3891 541.65L10.392 545.647L12.392 545.646L12.3891 541.648L10.3891 541.65ZM10.3949 549.644L10.3977 553.642L12.3977 553.64L12.3949 549.643L10.3949 549.644ZM10.4006 557.639L10.4035 561.637L12.4035 561.635L12.4006 557.638L10.4006 557.639ZM10.4063 565.634L10.4092 569.632L12.4092 569.63L12.4063 565.633L10.4063 565.634ZM10.4121 573.629L10.415 577.626L12.415 577.625L12.4121 573.628L10.4121 573.629ZM10.4178 581.624L10.4207 585.621L12.4207 585.62L12.4178 581.622L10.4178 581.624ZM10.4236 589.619L10.4264 593.616L12.4264 593.615L12.4236 589.617L10.4236 589.619ZM10.4293 597.614L10.4322 601.611L12.4322 601.61L12.4293 597.612L10.4293 597.614ZM10.4351 605.608L10.4379 609.606L12.4379 609.604L12.4351 605.607L10.4351 605.608ZM10.4408 613.603L10.4437 617.601L12.4437 617.599L12.4408 613.602L10.4408 613.603ZM10.4466 621.598L10.4494 625.596L12.4494 625.594L12.4465 621.597L10.4466 621.598ZM10.4523 629.593L10.4552 633.591L12.4552 633.589L12.4523 629.592L10.4523 629.593ZM10.458 637.588L10.4609 641.585L12.4609 641.584L12.458 637.587L10.458 637.588ZM10.4638 645.583L10.4667 649.58L12.4667 649.579L12.4638 645.581L10.4638 645.583ZM10.4695 653.578L10.4724 657.575L12.4724 657.574L12.4695 653.576L10.4695 653.578ZM10.4753 661.573L10.4781 665.57L12.4781 665.569L12.4753 661.571L10.4753 661.573ZM10.481 669.567L10.4839 673.565L12.4839 673.563L12.481 669.566L10.481 669.567ZM10.4868 677.562L10.4896 681.56L12.4896 681.558L12.4868 677.561L10.4868 677.562ZM10.4925 685.557L10.4954 689.555L12.4954 689.553L12.4925 685.556L10.4925 685.557ZM10.4982 693.552L10.5011 697.55L12.5011 697.548L12.4982 693.551L10.4982 693.552ZM10.504 701.547L10.5069 705.544L12.5069 705.543L12.504 701.546L10.504 701.547ZM10.5097 709.542L10.5126 713.539L12.5126 713.538L12.5097 709.54L10.5097 709.542ZM10.5155 717.537L10.5183 721.534L12.5183 721.533L12.5155 717.535L10.5155 717.537ZM10.5212 725.532L10.5241 729.529L12.5241 729.528L12.5212 725.53L10.5212 725.532ZM10.527 733.526L10.5298 737.524L12.5298 737.522L12.527 733.525L10.527 733.526ZM10.5327 741.521L10.5356 745.519L12.5356 745.517L12.5327 741.52L10.5327 741.521ZM10.5384 749.516L10.5413 753.514L12.5413 753.512L12.5384 749.515L10.5384 749.516ZM10.5442 757.511L10.5471 761.508L12.5471 761.507L12.5442 757.51L10.5442 757.511ZM10.5499 765.506L10.5528 769.503L12.5528 769.502L12.5499 765.504L10.5499 765.506ZM10.5557 773.501L10.5585 777.498L12.5585 777.497L12.5557 773.499L10.5557 773.501ZM10.5614 781.496L10.5643 785.493L12.5643 785.492L12.5614 781.494L10.5614 781.496ZM10.5672 789.491L10.57 793.488L12.57 793.487L12.5672 789.489L10.5672 789.491ZM10.5729 797.485L10.5758 801.483L12.5758 801.481L12.5729 797.484L10.5729 797.485ZM10.5786 805.48L10.5815 809.478L12.5815 809.476L12.5786 805.479L10.5786 805.48ZM10.5844 813.475L10.5873 817.473L12.5873 817.471L12.5844 813.474L10.5844 813.475ZM10.5901 821.47L10.593 825.467L12.593 825.466L12.5901 821.469L10.5901 821.47ZM10.5959 829.465L10.5988 833.462L12.5988 833.461L12.5959 829.463L10.5959 829.465ZM10.6016 837.46L10.6045 841.457L12.6045 841.456L12.6016 837.458L10.6016 837.46ZM10.6074 845.455L10.6102 849.452L12.6102 849.451L12.6074 845.453L10.6074 845.455ZM10.6131 853.449L10.616 857.447L12.616 857.445L12.6131 853.448L10.6131 853.449ZM10.6189 861.444L10.6217 865.442L12.6217 865.44L12.6189 861.443L10.6189 861.444ZM10.6246 869.439L10.6275 873.437L12.6275 873.435L12.6246 869.438L10.6246 869.439ZM10.6303 877.434L10.6332 881.431L12.6332 881.43L12.6303 877.433L10.6303 877.434ZM10.6361 885.429L10.639 889.426L12.639 889.425L12.6361 885.428L10.6361 885.429ZM10.6418 893.424L10.6447 897.421L12.6447 897.42L12.6418 893.422L10.6418 893.424ZM10.6476 901.419L10.6504 905.416L12.6504 905.415L12.6476 901.417L10.6476 901.419ZM10.6533 909.414L10.6562 913.411L12.6562 913.41L12.6533 909.412L10.6533 909.414ZM10.6591 917.409L10.6619 921.406L12.6619 921.404L12.6591 917.407L10.6591 917.409ZM10.6648 925.403L10.6677 929.401L12.6677 929.399L12.6648 925.402L10.6648 925.403ZM10.6705 933.398L10.6734 937.396L12.6734 937.394L12.6705 933.397L10.6705 933.398ZM10.6763 941.393L10.6792 945.391L12.6792 945.389L12.6763 941.392L10.6763 941.393ZM10.682 949.388L10.6849 953.385L12.6849 953.384L12.682 949.387L10.682 949.388ZM10.6878 957.383L10.6906 961.38L12.6906 961.379L12.6878 957.381L10.6878 957.383ZM10.6935 965.378L10.6964 969.375L12.6964 969.374L12.6935 965.376L10.6935 965.378ZM10.6993 973.373L10.7021 977.37L12.7021 977.369L12.6993 973.371L10.6993 973.373ZM10.705 981.367L10.7079 985.365L12.7079 985.363L12.705 981.366L10.705 981.367ZM10.7107 989.362L10.7136 993.36L12.7136 993.358L12.7107 989.361L10.7107 989.362ZM10.7165 997.357L10.7194 1001.35L12.7194 1001.35L12.7165 997.356L10.7165 997.357ZM10.7222 1005.35L10.7251 1009.35L12.7251 1009.35L12.7222 1005.35L10.7222 1005.35ZM10.728 1013.35L10.7309 1017.34L12.7309 1017.34L12.728 1013.35L10.728 1013.35ZM10.7337 1021.34L10.7366 1025.34L12.7366 1025.34L12.7337 1021.34L10.7337 1021.34ZM10.7395 1029.34L10.7423 1033.33L12.7423 1033.33L12.7395 1029.34L10.7395 1029.34ZM10.7452 1037.33L10.7481 1041.33L12.7481 1041.33L12.7452 1037.33L10.7452 1037.33ZM10.751 1045.33L10.7538 1049.32L12.7538 1049.32L12.751 1045.32L10.751 1045.33ZM10.7567 1053.32L10.7596 1057.32L12.7596 1057.32L12.7567 1053.32L10.7567 1053.32ZM10.7624 1061.32L10.7653 1065.31L12.7653 1065.31L12.7624 1061.31L10.7624 1061.32ZM10.7682 1069.31L10.7711 1073.31L12.7711 1073.31L12.7682 1069.31L10.7682 1069.31ZM10.7739 1077.31L10.7768 1081.3L12.7768 1081.3L12.7739 1077.3L10.7739 1077.31ZM10.7797 1085.3L10.7825 1089.3L12.7825 1089.3L12.7797 1085.3L10.7797 1085.3ZM10.7854 1093.3L10.7883 1097.29L12.7883 1097.29L12.7854 1093.29L10.7854 1093.3ZM10.7912 1101.29L10.794 1105.29L12.794 1105.29L12.7912 1101.29L10.7912 1101.29ZM10.7969 1109.29L10.7998 1113.28L12.7998 1113.28L12.7969 1109.28L10.7969 1109.29ZM10.8026 1117.28L10.8055 1121.28L12.8055 1121.28L12.8026 1117.28L10.8026 1117.28ZM10.8084 1125.28L10.8113 1129.27L12.8113 1129.27L12.8084 1125.27L10.8084 1125.28ZM10.8141 1133.27L10.817 1137.27L12.817 1137.27L12.8141 1133.27L10.8141 1133.27ZM10.8199 1141.26L10.8227 1145.26L12.8227 1145.26L12.8199 1141.26L10.8199 1141.26ZM10.8256 1149.26L10.8285 1153.26L12.8285 1153.26L12.8256 1149.26L10.8256 1149.26ZM10.8314 1157.25L10.8342 1161.25L12.8342 1161.25L12.8314 1157.25L10.8314 1157.25ZM10.8371 1165.25L10.84 1169.25L12.84 1169.25L12.8371 1165.25L10.8371 1165.25ZM10.8428 1173.24L10.8457 1177.24L12.8457 1177.24L12.8428 1173.24L10.8428 1173.24ZM10.8486 1181.24L10.8515 1185.24L12.8515 1185.24L12.8486 1181.24L10.8486 1181.24ZM10.8543 1189.23L10.8572 1193.23L12.8572 1193.23L12.8543 1189.23L10.8543 1189.23ZM10.8601 1197.23L10.8629 1201.23L12.8629 1201.22L12.8601 1197.23L10.8601 1197.23ZM10.8658 1205.22L10.8687 1209.22L12.8687 1209.22L12.8658 1205.22L10.8658 1205.22ZM10.8716 1213.22L10.8744 1217.22L12.8744 1217.21L12.8716 1213.22L10.8716 1213.22ZM10.8773 1221.21L10.8802 1225.21L12.8802 1225.21L12.8773 1221.21L10.8773 1221.21ZM10.8831 1229.21L10.8859 1233.21L12.8859 1233.2L12.8831 1229.21L10.8831 1229.21ZM10.8888 1237.2L10.8917 1241.2L12.8917 1241.2L12.8888 1237.2L10.8888 1237.2ZM10.8945 1245.2L10.8974 1249.2L12.8974 1249.19L12.8945 1245.2L10.8945 1245.2ZM10.9003 1253.19L10.9032 1257.19L12.9032 1257.19L12.9003 1253.19L10.9003 1253.19ZM10.906 1261.19L10.9089 1265.19L12.9089 1265.18L12.906 1261.19L10.906 1261.19ZM10.9118 1269.18L10.9146 1273.18L12.9146 1273.18L12.9118 1269.18L10.9118 1269.18ZM10.9175 1277.18L10.9204 1281.18L12.9204 1281.17L12.9175 1277.18L10.9175 1277.18ZM10.9233 1285.17L10.9261 1289.17L12.9261 1289.17L12.9233 1285.17L10.9233 1285.17ZM10.929 1293.17L10.9319 1297.16L12.9319 1297.16L12.929 1293.17L10.929 1293.17ZM10.9347 1301.16L10.9376 1305.16L12.9376 1305.16L12.9347 1301.16L10.9347 1301.16ZM10.9405 1309.16L10.9434 1313.15L12.9434 1313.15L12.9405 1309.16L10.9405 1309.16ZM10.9462 1317.15L10.9491 1321.15L12.9491 1321.15L12.9462 1317.15L10.9462 1317.15ZM10.952 1325.15L10.9548 1329.14L12.9548 1329.14L12.952 1325.15L10.952 1325.15ZM10.9577 1333.14L10.9606 1337.14L12.9606 1337.14L12.9577 1333.14L10.9577 1333.14ZM10.9635 1341.14L10.9663 1345.13L12.9663 1345.13L12.9635 1341.14L10.9635 1341.14ZM10.9692 1349.13L10.9721 1353.13L12.9721 1353.13L12.9692 1349.13L10.9692 1349.13ZM10.9749 1357.13L10.9778 1361.12L12.9778 1361.12L12.9749 1357.12L10.9749 1357.13ZM10.9807 1365.12L10.9836 1369.12L12.9836 1369.12L12.9807 1365.12L10.9807 1365.12ZM10.9864 1373.12L10.9893 1377.11L12.9893 1377.11L12.9864 1373.11L10.9864 1373.12ZM10.9922 1381.11L10.995 1385.11L12.995 1385.11L12.9922 1381.11L10.9922 1381.11ZM10.9979 1389.11L11.0008 1393.1L13.0008 1393.1L12.9979 1389.1L10.9979 1389.11ZM11.0037 1397.1L11.0065 1401.1L13.0065 1401.1L13.0037 1397.1L11.0037 1397.1ZM11.0094 1405.1L11.0123 1409.09L13.0123 1409.09L13.0094 1405.09L11.0094 1405.1ZM11.0152 1413.09L11.018 1417.09L13.018 1417.09L13.0152 1413.09L11.0152 1413.09ZM11.0209 1421.09L11.0238 1425.08L13.0238 1425.08L13.0209 1421.08L11.0209 1421.09ZM11.0266 1429.08L11.0295 1433.08L13.0295 1433.08L13.0266 1429.08L11.0266 1429.08ZM11.0324 1437.08L11.0353 1441.07L13.0353 1441.07L13.0324 1437.07L11.0324 1437.08ZM11.0381 1445.07L11.041 1449.07L13.041 1449.07L13.0381 1445.07L11.0381 1445.07ZM11.0439 1453.06L11.0467 1457.06L13.0467 1457.06L13.0439 1453.06L11.0439 1453.06ZM11.0496 1461.06L11.0525 1465.06L13.0525 1465.06L13.0496 1461.06L11.0496 1461.06ZM11.0554 1469.05L11.0582 1473.05L13.0582 1473.05L13.0554 1469.05L11.0554 1469.05ZM11.0611 1477.05L11.064 1481.05L13.064 1481.05L13.0611 1477.05L11.0611 1477.05ZM11.0668 1485.04L11.0697 1489.04L13.0697 1489.04L13.0668 1485.04L11.0668 1485.04ZM11.0726 1493.04L11.0755 1497.04L13.0755 1497.04L13.0726 1493.04L11.0726 1493.04ZM11.0783 1501.03L11.0812 1505.03L13.0812 1505.03L13.0783 1501.03L11.0783 1501.03ZM11.0841 1509.03L11.0869 1513.03L13.0869 1513.02L13.0841 1509.03L11.0841 1509.03ZM11.0898 1517.02L11.0927 1521.02L13.0927 1521.02L13.0898 1517.02L11.0898 1517.02ZM11.0956 1525.02L11.0984 1529.02L13.0984 1529.01L13.0956 1525.02L11.0956 1525.02ZM11.1013 1533.01L11.1042 1537.01L13.1042 1537.01L13.1013 1533.01L11.1013 1533.01ZM11.107 1541.01L11.1085 1543L13.1085 1543L13.107 1541.01L11.107 1541.01ZM11.4019 1543.71C11.7927 1544.1 12.4258 1544.1 12.8161 1543.71L19.1755 1537.34C19.5657 1536.95 19.5653 1536.31 19.1745 1535.92C18.7837 1535.53 18.1505 1535.53 17.7603 1535.92L12.1075 1541.59L6.44654 1535.93C6.05574 1535.54 5.42257 1535.54 5.03233 1535.93C4.64209 1536.32 4.64254 1536.96 5.03335 1537.35L11.4019 1543.71ZM10 0.000718391L10.0014 1.99942L12.0014 1.99799L12 -0.000718391L10 0.000718391ZM10.0043 5.99683L10.0072 9.99424L12.0072 9.99281L12.0043 5.9954L10.0043 5.99683ZM10.0101 13.9917L10.0129 17.9891L12.0129 17.9876L12.0101 13.9902L10.0101 13.9917ZM10.0158 21.9865L10.0187 25.9839L12.0187 25.9824L12.0158 21.985L10.0158 21.9865ZM10.0215 29.9813L10.0244 33.9787L12.0244 33.9773L12.0215 29.9799L10.0215 29.9813ZM10.0273 37.9761L10.0302 41.9735L12.0302 41.9721L12.0273 37.9747L10.0273 37.9761ZM10.033 45.9709L10.0359 49.9683L12.0359 49.9669L12.033 45.9695L10.033 45.9709ZM10.0388 53.9657L10.0416 57.9632L12.0416 57.9617L12.0388 53.9643L10.0388 53.9657ZM10.0445 61.9606L10.0474 65.958L12.0474 65.9565L12.0445 61.9591L10.0445 61.9606ZM10.0503 69.9554L10.0531 73.9528L12.0531 73.9514L12.0503 69.9539L10.0503 69.9554ZM10.056 77.9502L10.0589 81.9476L12.0589 81.9462L12.056 77.9488L10.056 77.9502ZM10.0617 85.945L10.0646 89.9424L12.0646 89.941L12.0617 85.9436L10.0617 85.945ZM10.0675 93.9399L10.0704 97.9373L12.0704 97.9358L12.0675 93.9384L10.0675 93.9399ZM10.0732 101.935L10.0761 105.932L12.0761 105.931L12.0732 101.933L10.0732 101.935ZM10.079 109.93L10.0818 113.927L12.0818 113.925L12.079 109.928L10.079 109.93ZM10.0847 117.924L10.0876 121.922L12.0876 121.92L12.0847 117.923L10.0847 117.924ZM10.0905 125.919L10.0933 129.917L12.0933 129.915L12.0905 125.918L10.0905 125.919ZM10.0962 133.914L10.0991 137.911L12.0991 137.91L12.0962 133.913L10.0962 133.914ZM10.1019 141.909L10.1048 145.906L12.1048 145.905L12.1019 141.907L10.1019 141.909ZM10.1077 149.904L10.1106 153.901L12.1106 153.9L12.1077 149.902L10.1077 149.904ZM10.1134 157.898L10.1163 161.896L12.1163 161.894L12.1134 157.897L10.1134 157.898ZM10.1192 165.893L10.122 169.891L12.122 169.889L12.1192 165.892L10.1192 165.893ZM10.1249 173.888L10.1278 177.885L12.1278 177.884L12.1249 173.887L10.1249 173.888ZM10.1307 181.883L10.1335 185.88L12.1335 185.879L12.1307 181.881L10.1307 181.883ZM10.1364 189.878L10.1393 193.875L12.1393 193.874L12.1364 189.876L10.1364 189.878ZM10.1421 197.872L10.145 201.87L12.145 201.868L12.1421 197.871L10.1421 197.872ZM10.1479 205.867L10.1508 209.865L12.1508 209.863L12.1479 205.866L10.1479 205.867ZM10.1536 213.862L10.1565 217.859L12.1565 217.858L12.1536 213.861L10.1536 213.862ZM10.1594 221.857L10.1623 225.854L12.1623 225.853L12.1594 221.855L10.1594 221.857ZM10.1651 229.852L10.168 233.849L12.168 233.848L12.1651 229.85L10.1651 229.852ZM10.1709 237.847L10.1737 241.844L12.1737 241.842L12.1709 237.845L10.1709 237.847ZM10.1766 245.841L10.1795 249.839L12.1795 249.837L12.1766 245.84L10.1766 245.841ZM10.1824 253.836L10.1852 257.834L12.1852 257.832L12.1824 253.835L10.1824 253.836ZM10.1881 261.831L10.191 265.828L12.191 265.827L12.1881 261.83L10.1881 261.831ZM10.1938 269.826L10.1967 273.823L12.1967 273.822L12.1938 269.824L10.1938 269.826ZM10.1996 277.821L10.2025 281.818L12.2025 281.817L12.1996 277.819L10.1996 277.821ZM10.2053 285.815L10.2082 289.813L12.2082 289.811L12.2053 285.814L10.2053 285.815ZM10.2111 293.81L10.2139 297.808L12.2139 297.806L12.2111 293.809L10.2111 293.81ZM10.2168 301.805L10.2197 305.802L12.2197 305.801L12.2168 301.804L10.2168 301.805ZM10.2226 309.8L10.2254 313.797L12.2254 313.796L12.2226 309.798L10.2226 309.8ZM10.2283 317.795L10.2312 321.792L12.2312 321.791L12.2283 317.793L10.2283 317.795ZM10.234 325.789L10.2369 329.787L12.2369 329.785L12.234 325.788L10.234 325.789ZM10.2398 333.784L10.2427 337.782L12.2427 337.78L12.2398 333.783L10.2398 333.784ZM10.2455 341.779L10.2484 345.776L12.2484 345.775L12.2455 341.778L10.2455 341.779ZM10.2513 349.774L10.2541 353.771L12.2541 353.77L12.2513 349.772L10.2513 349.774ZM10.257 357.769L10.2599 361.766L12.2599 361.765L12.257 357.767L10.257 357.769ZM10.2628 365.763L10.2656 369.761L12.2656 369.759L12.2628 365.762L10.2628 365.763ZM10.2685 373.758L10.2714 377.756L12.2714 377.754L12.2685 373.757L10.2685 373.758ZM10.2742 381.753L10.2771 385.751L12.2771 385.749L12.2742 381.752L10.2742 381.753ZM10.28 389.748L10.2829 393.745L12.2829 393.744L12.28 389.746L10.28 389.748ZM10.2857 397.743L10.2886 401.74L12.2886 401.739L12.2857 397.741L10.2857 397.743ZM10.2915 405.738L10.2943 409.735L12.2943 409.733L12.2915 405.736L10.2915 405.738ZM10.2972 413.732L10.3001 417.73L12.3001 417.728L12.2972 413.731L10.2972 413.732ZM10.303 421.727L10.3058 425.725L12.3058 425.723L12.303 421.726L10.303 421.727ZM10.3087 429.722L10.3116 433.719L12.3116 433.718L12.3087 429.721L10.3087 429.722ZM10.3145 437.717L10.3173 441.714L12.3173 441.713L12.3145 437.715L10.3145 437.717ZM10.3202 445.712L10.3231 449.709L12.3231 449.708L12.3202 445.71L10.3202 445.712ZM10.3259 453.706L10.3288 457.704L12.3288 457.702L12.3259 453.705L10.3259 453.706ZM10.3317 461.701L10.3346 465.699L12.3346 465.697L12.3317 461.7L10.3317 461.701ZM10.3374 469.696L10.3403 473.693L12.3403 473.692L12.3374 469.695L10.3374 469.696ZM10.3432 477.691L10.346 481.688L12.346 481.687L12.3432 477.689L10.3432 477.691ZM10.3489 485.686L10.3518 489.683L12.3518 489.682L12.3489 485.684L10.3489 485.686ZM10.3547 493.68L10.3575 497.678L12.3575 497.676L12.3547 493.679L10.3547 493.68ZM10.3604 501.675L10.3633 505.673L12.3633 505.671L12.3604 501.674L10.3604 501.675ZM10.3661 509.67L10.369 513.667L12.369 513.666L12.3661 509.669L10.3661 509.67ZM10.3719 517.665L10.3748 521.662L12.3748 521.661L12.3719 517.663L10.3719 517.665ZM10.3776 525.66L10.3805 529.657L12.3805 529.656L12.3776 525.658L10.3776 525.66ZM10.3834 533.655L10.3862 537.652L12.3862 537.651L12.3834 533.653L10.3834 533.655ZM10.3891 541.65L10.392 545.647L12.392 545.646L12.3891 541.648L10.3891 541.65ZM10.3949 549.644L10.3977 553.642L12.3977 553.64L12.3949 549.643L10.3949 549.644ZM10.4006 557.639L10.4035 561.637L12.4035 561.635L12.4006 557.638L10.4006 557.639ZM10.4063 565.634L10.4092 569.632L12.4092 569.63L12.4063 565.633L10.4063 565.634ZM10.4121 573.629L10.415 577.626L12.415 577.625L12.4121 573.628L10.4121 573.629ZM10.4178 581.624L10.4207 585.621L12.4207 585.62L12.4178 581.622L10.4178 581.624ZM10.4236 589.619L10.4264 593.616L12.4264 593.615L12.4236 589.617L10.4236 589.619ZM10.4293 597.614L10.4322 601.611L12.4322 601.61L12.4293 597.612L10.4293 597.614ZM10.4351 605.608L10.4379 609.606L12.4379 609.604L12.4351 605.607L10.4351 605.608ZM10.4408 613.603L10.4437 617.601L12.4437 617.599L12.4408 613.602L10.4408 613.603ZM10.4466 621.598L10.4494 625.596L12.4494 625.594L12.4465 621.597L10.4466 621.598ZM10.4523 629.593L10.4552 633.591L12.4552 633.589L12.4523 629.592L10.4523 629.593ZM10.458 637.588L10.4609 641.585L12.4609 641.584L12.458 637.587L10.458 637.588ZM10.4638 645.583L10.4667 649.58L12.4667 649.579L12.4638 645.581L10.4638 645.583ZM10.4695 653.578L10.4724 657.575L12.4724 657.574L12.4695 653.576L10.4695 653.578ZM10.4753 661.573L10.4781 665.57L12.4781 665.569L12.4753 661.571L10.4753 661.573ZM10.481 669.567L10.4839 673.565L12.4839 673.563L12.481 669.566L10.481 669.567ZM10.4868 677.562L10.4896 681.56L12.4896 681.558L12.4868 677.561L10.4868 677.562ZM10.4925 685.557L10.4954 689.555L12.4954 689.553L12.4925 685.556L10.4925 685.557ZM10.4982 693.552L10.5011 697.55L12.5011 697.548L12.4982 693.551L10.4982 693.552ZM10.504 701.547L10.5069 705.544L12.5069 705.543L12.504 701.546L10.504 701.547ZM10.5097 709.542L10.5126 713.539L12.5126 713.538L12.5097 709.54L10.5097 709.542ZM10.5155 717.537L10.5183 721.534L12.5183 721.533L12.5155 717.535L10.5155 717.537ZM10.5212 725.532L10.5241 729.529L12.5241 729.528L12.5212 725.53L10.5212 725.532ZM10.527 733.526L10.5298 737.524L12.5298 737.522L12.527 733.525L10.527 733.526ZM10.5327 741.521L10.5356 745.519L12.5356 745.517L12.5327 741.52L10.5327 741.521ZM10.5384 749.516L10.5413 753.514L12.5413 753.512L12.5384 749.515L10.5384 749.516ZM10.5442 757.511L10.5471 761.508L12.5471 761.507L12.5442 757.51L10.5442 757.511ZM10.5499 765.506L10.5528 769.503L12.5528 769.502L12.5499 765.504L10.5499 765.506ZM10.5557 773.501L10.5585 777.498L12.5585 777.497L12.5557 773.499L10.5557 773.501ZM10.5614 781.496L10.5643 785.493L12.5643 785.492L12.5614 781.494L10.5614 781.496ZM10.5672 789.491L10.57 793.488L12.57 793.487L12.5672 789.489L10.5672 789.491ZM10.5729 797.485L10.5758 801.483L12.5758 801.481L12.5729 797.484L10.5729 797.485ZM10.5786 805.48L10.5815 809.478L12.5815 809.476L12.5786 805.479L10.5786 805.48ZM10.5844 813.475L10.5873 817.473L12.5873 817.471L12.5844 813.474L10.5844 813.475ZM10.5901 821.47L10.593 825.467L12.593 825.466L12.5901 821.469L10.5901 821.47ZM10.5959 829.465L10.5988 833.462L12.5988 833.461L12.5959 829.463L10.5959 829.465ZM10.6016 837.46L10.6045 841.457L12.6045 841.456L12.6016 837.458L10.6016 837.46ZM10.6074 845.455L10.6102 849.452L12.6102 849.451L12.6074 845.453L10.6074 845.455ZM10.6131 853.449L10.616 857.447L12.616 857.445L12.6131 853.448L10.6131 853.449ZM10.6189 861.444L10.6217 865.442L12.6217 865.44L12.6189 861.443L10.6189 861.444ZM10.6246 869.439L10.6275 873.437L12.6275 873.435L12.6246 869.438L10.6246 869.439ZM10.6303 877.434L10.6332 881.431L12.6332 881.43L12.6303 877.433L10.6303 877.434ZM10.6361 885.429L10.639 889.426L12.639 889.425L12.6361 885.428L10.6361 885.429ZM10.6418 893.424L10.6447 897.421L12.6447 897.42L12.6418 893.422L10.6418 893.424ZM10.6476 901.419L10.6504 905.416L12.6504 905.415L12.6476 901.417L10.6476 901.419ZM10.6533 909.414L10.6562 913.411L12.6562 913.41L12.6533 909.412L10.6533 909.414ZM10.6591 917.409L10.6619 921.406L12.6619 921.404L12.6591 917.407L10.6591 917.409ZM10.6648 925.403L10.6677 929.401L12.6677 929.399L12.6648 925.402L10.6648 925.403ZM10.6705 933.398L10.6734 937.396L12.6734 937.394L12.6705 933.397L10.6705 933.398ZM10.6763 941.393L10.6792 945.391L12.6792 945.389L12.6763 941.392L10.6763 941.393ZM10.682 949.388L10.6849 953.385L12.6849 953.384L12.682 949.387L10.682 949.388ZM10.6878 957.383L10.6906 961.38L12.6906 961.379L12.6878 957.381L10.6878 957.383ZM10.6935 965.378L10.6964 969.375L12.6964 969.374L12.6935 965.376L10.6935 965.378ZM10.6993 973.373L10.7021 977.37L12.7021 977.369L12.6993 973.371L10.6993 973.373ZM10.705 981.367L10.7079 985.365L12.7079 985.363L12.705 981.366L10.705 981.367ZM10.7107 989.362L10.7136 993.36L12.7136 993.358L12.7107 989.361L10.7107 989.362ZM10.7165 997.357L10.7194 1001.35L12.7194 1001.35L12.7165 997.356L10.7165 997.357ZM10.7222 1005.35L10.7251 1009.35L12.7251 1009.35L12.7222 1005.35L10.7222 1005.35ZM10.728 1013.35L10.7309 1017.34L12.7309 1017.34L12.728 1013.35L10.728 1013.35ZM10.7337 1021.34L10.7366 1025.34L12.7366 1025.34L12.7337 1021.34L10.7337 1021.34ZM10.7395 1029.34L10.7423 1033.33L12.7423 1033.33L12.7395 1029.34L10.7395 1029.34ZM10.7452 1037.33L10.7481 1041.33L12.7481 1041.33L12.7452 1037.33L10.7452 1037.33ZM10.751 1045.33L10.7538 1049.32L12.7538 1049.32L12.751 1045.32L10.751 1045.33ZM10.7567 1053.32L10.7596 1057.32L12.7596 1057.32L12.7567 1053.32L10.7567 1053.32ZM10.7624 1061.32L10.7653 1065.31L12.7653 1065.31L12.7624 1061.31L10.7624 1061.32ZM10.7682 1069.31L10.7711 1073.31L12.7711 1073.31L12.7682 1069.31L10.7682 1069.31ZM10.7739 1077.31L10.7768 1081.3L12.7768 1081.3L12.7739 1077.3L10.7739 1077.31ZM10.7797 1085.3L10.7825 1089.3L12.7825 1089.3L12.7797 1085.3L10.7797 1085.3ZM10.7854 1093.3L10.7883 1097.29L12.7883 1097.29L12.7854 1093.29L10.7854 1093.3ZM10.7912 1101.29L10.794 1105.29L12.794 1105.29L12.7912 1101.29L10.7912 1101.29ZM10.7969 1109.29L10.7998 1113.28L12.7998 1113.28L12.7969 1109.28L10.7969 1109.29ZM10.8026 1117.28L10.8055 1121.28L12.8055 1121.28L12.8026 1117.28L10.8026 1117.28ZM10.8084 1125.28L10.8113 1129.27L12.8113 1129.27L12.8084 1125.27L10.8084 1125.28ZM10.8141 1133.27L10.817 1137.27L12.817 1137.27L12.8141 1133.27L10.8141 1133.27ZM10.8199 1141.26L10.8227 1145.26L12.8227 1145.26L12.8199 1141.26L10.8199 1141.26ZM10.8256 1149.26L10.8285 1153.26L12.8285 1153.26L12.8256 1149.26L10.8256 1149.26ZM10.8314 1157.25L10.8342 1161.25L12.8342 1161.25L12.8314 1157.25L10.8314 1157.25ZM10.8371 1165.25L10.84 1169.25L12.84 1169.25L12.8371 1165.25L10.8371 1165.25ZM10.8428 1173.24L10.8457 1177.24L12.8457 1177.24L12.8428 1173.24L10.8428 1173.24ZM10.8486 1181.24L10.8515 1185.24L12.8515 1185.24L12.8486 1181.24L10.8486 1181.24ZM10.8543 1189.23L10.8572 1193.23L12.8572 1193.23L12.8543 1189.23L10.8543 1189.23ZM10.8601 1197.23L10.8629 1201.23L12.8629 1201.22L12.8601 1197.23L10.8601 1197.23ZM10.8658 1205.22L10.8687 1209.22L12.8687 1209.22L12.8658 1205.22L10.8658 1205.22ZM10.8716 1213.22L10.8744 1217.22L12.8744 1217.21L12.8716 1213.22L10.8716 1213.22ZM10.8773 1221.21L10.8802 1225.21L12.8802 1225.21L12.8773 1221.21L10.8773 1221.21ZM10.8831 1229.21L10.8859 1233.21L12.8859 1233.2L12.8831 1229.21L10.8831 1229.21ZM10.8888 1237.2L10.8917 1241.2L12.8917 1241.2L12.8888 1237.2L10.8888 1237.2ZM10.8945 1245.2L10.8974 1249.2L12.8974 1249.19L12.8945 1245.2L10.8945 1245.2ZM10.9003 1253.19L10.9032 1257.19L12.9032 1257.19L12.9003 1253.19L10.9003 1253.19ZM10.906 1261.19L10.9089 1265.19L12.9089 1265.18L12.906 1261.19L10.906 1261.19ZM10.9118 1269.18L10.9146 1273.18L12.9146 1273.18L12.9118 1269.18L10.9118 1269.18ZM10.9175 1277.18L10.9204 1281.18L12.9204 1281.17L12.9175 1277.18L10.9175 1277.18ZM10.9233 1285.17L10.9261 1289.17L12.9261 1289.17L12.9233 1285.17L10.9233 1285.17ZM10.929 1293.17L10.9319 1297.16L12.9319 1297.16L12.929 1293.17L10.929 1293.17ZM10.9347 1301.16L10.9376 1305.16L12.9376 1305.16L12.9347 1301.16L10.9347 1301.16ZM10.9405 1309.16L10.9434 1313.15L12.9434 1313.15L12.9405 1309.16L10.9405 1309.16ZM10.9462 1317.15L10.9491 1321.15L12.9491 1321.15L12.9462 1317.15L10.9462 1317.15ZM10.952 1325.15L10.9548 1329.14L12.9548 1329.14L12.952 1325.15L10.952 1325.15ZM10.9577 1333.14L10.9606 1337.14L12.9606 1337.14L12.9577 1333.14L10.9577 1333.14ZM10.9635 1341.14L10.9663 1345.13L12.9663 1345.13L12.9635 1341.14L10.9635 1341.14ZM10.9692 1349.13L10.9721 1353.13L12.9721 1353.13L12.9692 1349.13L10.9692 1349.13ZM10.9749 1357.13L10.9778 1361.12L12.9778 1361.12L12.9749 1357.12L10.9749 1357.13ZM10.9807 1365.12L10.9836 1369.12L12.9836 1369.12L12.9807 1365.12L10.9807 1365.12ZM10.9864 1373.12L10.9893 1377.11L12.9893 1377.11L12.9864 1373.11L10.9864 1373.12ZM10.9922 1381.11L10.995 1385.11L12.995 1385.11L12.9922 1381.11L10.9922 1381.11ZM10.9979 1389.11L11.0008 1393.1L13.0008 1393.1L12.9979 1389.1L10.9979 1389.11ZM11.0037 1397.1L11.0065 1401.1L13.0065 1401.1L13.0037 1397.1L11.0037 1397.1ZM11.0094 1405.1L11.0123 1409.09L13.0123 1409.09L13.0094 1405.09L11.0094 1405.1ZM11.0152 1413.09L11.018 1417.09L13.018 1417.09L13.0152 1413.09L11.0152 1413.09ZM11.0209 1421.09L11.0238 1425.08L13.0238 1425.08L13.0209 1421.08L11.0209 1421.09ZM11.0266 1429.08L11.0295 1433.08L13.0295 1433.08L13.0266 1429.08L11.0266 1429.08ZM11.0324 1437.08L11.0353 1441.07L13.0353 1441.07L13.0324 1437.07L11.0324 1437.08ZM11.0381 1445.07L11.041 1449.07L13.041 1449.07L13.0381 1445.07L11.0381 1445.07ZM11.0439 1453.06L11.0467 1457.06L13.0467 1457.06L13.0439 1453.06L11.0439 1453.06ZM11.0496 1461.06L11.0525 1465.06L13.0525 1465.06L13.0496 1461.06L11.0496 1461.06ZM11.0554 1469.05L11.0582 1473.05L13.0582 1473.05L13.0554 1469.05L11.0554 1469.05ZM11.0611 1477.05L11.064 1481.05L13.064 1481.05L13.0611 1477.05L11.0611 1477.05ZM11.0668 1485.04L11.0697 1489.04L13.0697 1489.04L13.0668 1485.04L11.0668 1485.04ZM11.0726 1493.04L11.0755 1497.04L13.0755 1497.04L13.0726 1493.04L11.0726 1493.04ZM11.0783 1501.03L11.0812 1505.03L13.0812 1505.03L13.0783 1501.03L11.0783 1501.03ZM11.0841 1509.03L11.0869 1513.03L13.0869 1513.02L13.0841 1509.03L11.0841 1509.03ZM11.0898 1517.02L11.0927 1521.02L13.0927 1521.02L13.0898 1517.02L11.0898 1517.02ZM11.0956 1525.02L11.0984 1529.02L13.0984 1529.01L13.0956 1525.02L11.0956 1525.02ZM11.1013 1533.01L11.1042 1537.01L13.1042 1537.01L13.1013 1533.01L11.1013 1533.01ZM11.107 1541.01L11.1085 1543L13.1085 1543L13.107 1541.01L11.107 1541.01Z" fill="#002060"/>
</g>
<defs>
<filter id="filter0_d_606_130" x="0.740234" y="-0.000717163" width="22.7275" height="1552" filterUnits="userSpaceOnUse" color-interpolation-filters="sRGB">
<feFlood flood-opacity="0" result="BackgroundImageFix"/>
<feColorMatrix in="SourceAlpha" type="matrix" values="0 0 0 0 0 0 0 0 0 0 0 0 0 0 0 0 0 0 127 0" result="hardAlpha"/>
<feOffset dy="4"/>
<feGaussianBlur stdDeviation="2"/>
<feComposite in2="hardAlpha" operator="out"/>
<feColorMatrix type="matrix" values="0 0 0 0 0 0 0 0 0 0 0 0 0 0 0 0 0 0 0.25 0"/>
<feBlend mode="normal" in2="BackgroundImageFix" result="effect1_dropShadow_606_130"/>
<feBlend mode="normal" in="SourceGraphic" in2="effect1_dropShadow_606_130" result="shape"/>
</filter>
</defs>
</svg>
