<svg width="959" height="442" viewBox="0 0 959 442" fill="none" xmlns="http://www.w3.org/2000/svg">
<path d="M411.756 207.557C412.22 208.244 413.152 208.425 413.839 207.962L425.029 200.41C425.716 199.946 425.897 199.014 425.433 198.327C424.97 197.64 424.037 197.459 423.351 197.923L413.404 204.636L406.691 194.689C406.228 194.002 405.295 193.821 404.609 194.285C403.922 194.748 403.741 195.681 404.205 196.367L411.756 207.557ZM364.653 139.177C390.819 145.402 404.108 152.99 410.144 163.331C416.199 173.702 415.243 187.289 411.527 206.432L414.472 207.004C418.169 187.96 419.427 173.282 412.735 161.818C406.025 150.324 391.608 142.506 365.347 136.259L364.653 139.177Z" fill="#6890F5"/>
<path d="M334.113 137.269C333.709 136.545 332.796 136.287 332.072 136.691L320.287 143.275C319.563 143.679 319.305 144.593 319.709 145.316C320.113 146.039 321.027 146.298 321.75 145.894L332.226 140.041L338.078 150.517C338.482 151.24 339.396 151.499 340.12 151.095C340.843 150.691 341.101 149.777 340.697 149.054L334.113 137.269ZM375.299 209.368C349.749 200.965 337.146 192.286 332 181.474C326.84 170.63 328.934 157.172 334.247 138.409L331.361 137.591C326.075 156.257 323.587 170.777 329.291 182.763C335.011 194.781 348.72 203.784 374.362 212.218L375.299 209.368Z" fill="#6890F5"/>
<rect x="341" y="44" width="75" height="75" fill="#6890F5"/>
<path d="M4.25 33V13.5H7.05V30.65H16.25V33H4.25ZM23.677 33.375C22.3936 33.375 21.302 33.05 20.402 32.4C19.502 31.75 18.8103 30.8417 18.327 29.675C17.8603 28.4917 17.627 27.1 17.627 25.5C17.627 23.9 17.8603 22.5167 18.327 21.35C18.8103 20.1667 19.502 19.25 20.402 18.6C21.3186 17.95 22.427 17.625 23.727 17.625C24.8603 17.625 25.7603 17.8667 26.427 18.35C27.1103 18.8167 27.5853 19.35 27.852 19.95H28.452V18H30.852V33H28.452V31.05H27.852C27.5853 31.65 27.1103 32.1917 26.427 32.675C25.7436 33.1417 24.827 33.375 23.677 33.375ZM24.152 31.125C25.402 31.125 26.3936 30.6083 27.127 29.575C27.8603 28.5417 28.227 27.1833 28.227 25.5C28.227 23.8167 27.8603 22.4583 27.127 21.425C26.3936 20.3917 25.402 19.875 24.152 19.875C22.9353 19.875 22.002 20.3667 21.352 21.35C20.702 22.3333 20.377 23.7167 20.377 25.5C20.377 27.2833 20.702 28.6667 21.352 29.65C22.002 30.6333 22.9353 31.125 24.152 31.125ZM35.8711 38V37.85C36.3544 37.1167 36.8628 36.25 37.3961 35.25C37.9294 34.2667 38.4128 33.2583 38.8461 32.225L33.4461 18.15V18H36.1461L38.9461 25.5C39.1128 25.9333 39.2711 26.3917 39.4211 26.875C39.5878 27.3417 39.7544 27.9167 39.9211 28.6H40.5211C40.6878 27.9167 40.8461 27.3417 40.9961 26.875C41.1628 26.3917 41.3294 25.9333 41.4961 25.5L44.2961 18H46.7961V18.15L41.6461 31.65C41.1461 32.9667 40.6294 34.1833 40.0961 35.3C39.5794 36.4167 39.1044 37.3167 38.6711 38H35.8711ZM55.0844 33.375C52.8844 33.375 51.2094 32.6583 50.0594 31.225C48.926 29.775 48.3594 27.8667 48.3594 25.5C48.3594 23.9333 48.6094 22.5667 49.1094 21.4C49.626 20.2167 50.376 19.2917 51.3594 18.625C52.3594 17.9583 53.5927 17.625 55.0594 17.625C57.1094 17.625 58.6677 18.2917 59.7344 19.625C60.8177 20.9583 61.3594 22.8917 61.3594 25.425V26.2H50.9844C51.0677 27.6667 51.4427 28.875 52.1094 29.825C52.7927 30.7583 53.7927 31.225 55.1094 31.225C56.0594 31.225 56.826 30.9583 57.4094 30.425C57.9927 29.8917 58.4094 29.15 58.6594 28.2H61.2094C60.9927 29.2167 60.6344 30.1167 60.1344 30.9C59.6344 31.6667 58.9677 32.275 58.1344 32.725C57.301 33.1583 56.2844 33.375 55.0844 33.375ZM51.0094 24.25H58.7344C58.6844 22.8 58.3344 21.6917 57.6844 20.925C57.0344 20.1583 56.151 19.775 55.0344 19.775C53.851 19.775 52.9177 20.1667 52.2344 20.95C51.5677 21.7333 51.1594 22.8333 51.0094 24.25ZM64.698 33V18H67.098V20.55H67.698C67.798 20.1333 67.973 19.7167 68.223 19.3C68.473 18.8833 68.873 18.5417 69.423 18.275C69.973 17.9917 70.748 17.85 71.748 17.85H72.248V20.4H71.498C69.998 20.4 68.9397 20.7917 68.323 21.575C67.7064 22.3417 67.398 23.55 67.398 25.2V33H64.698ZM80.9922 33V30.5C82.4422 29.35 83.6339 28.3833 84.5672 27.6C85.5172 26.8167 86.3505 26.0833 87.0672 25.4C88.3672 24.15 89.3172 23.0333 89.9172 22.05C90.5339 21.05 90.8422 20.0083 90.8422 18.925C90.8422 17.8417 90.5422 16.9667 89.9422 16.3C89.3422 15.6333 88.4505 15.3 87.2672 15.3C85.9672 15.3 85.0172 15.7083 84.4172 16.525C83.8172 17.325 83.5172 18.3167 83.5172 19.5H80.9922C80.9922 18.2833 81.2339 17.2 81.7172 16.25C82.2172 15.2833 82.9422 14.525 83.8922 13.975C84.8589 13.425 86.0255 13.15 87.3922 13.15C89.2589 13.15 90.7505 13.6417 91.8672 14.625C92.9839 15.6083 93.5422 16.9417 93.5422 18.625C93.5422 20.1917 93.1005 21.65 92.2172 23C91.3505 24.3333 90.2422 25.6167 88.8922 26.85C88.3755 27.3333 87.7422 27.8583 86.9922 28.425C86.2589 28.9917 85.4005 29.5667 84.4172 30.15V30.65H93.9922V33H80.9922Z" fill="#6890F5"/>
<path d="M629.25 81V61.5H632.05V78.65H641.25V81H629.25ZM648.677 81.375C647.394 81.375 646.302 81.05 645.402 80.4C644.502 79.75 643.81 78.8417 643.327 77.675C642.86 76.4917 642.627 75.1 642.627 73.5C642.627 71.9 642.86 70.5167 643.327 69.35C643.81 68.1667 644.502 67.25 645.402 66.6C646.319 65.95 647.427 65.625 648.727 65.625C649.86 65.625 650.76 65.8667 651.427 66.35C652.11 66.8167 652.585 67.35 652.852 67.95H653.452V66H655.852V81H653.452V79.05H652.852C652.585 79.65 652.11 80.1917 651.427 80.675C650.744 81.1417 649.827 81.375 648.677 81.375ZM649.152 79.125C650.402 79.125 651.394 78.6083 652.127 77.575C652.86 76.5417 653.227 75.1833 653.227 73.5C653.227 71.8167 652.86 70.4583 652.127 69.425C651.394 68.3917 650.402 67.875 649.152 67.875C647.935 67.875 647.002 68.3667 646.352 69.35C645.702 70.3333 645.377 71.7167 645.377 73.5C645.377 75.2833 645.702 76.6667 646.352 77.65C647.002 78.6333 647.935 79.125 649.152 79.125ZM660.871 86V85.85C661.354 85.1167 661.863 84.25 662.396 83.25C662.929 82.2667 663.413 81.2583 663.846 80.225L658.446 66.15V66H661.146L663.946 73.5C664.113 73.9333 664.271 74.3917 664.421 74.875C664.588 75.3417 664.754 75.9167 664.921 76.6H665.521C665.688 75.9167 665.846 75.3417 665.996 74.875C666.163 74.3917 666.329 73.9333 666.496 73.5L669.296 66H671.796V66.15L666.646 79.65C666.146 80.9667 665.629 82.1833 665.096 83.3C664.579 84.4167 664.104 85.3167 663.671 86H660.871ZM680.084 81.375C677.884 81.375 676.209 80.6583 675.059 79.225C673.926 77.775 673.359 75.8667 673.359 73.5C673.359 71.9333 673.609 70.5667 674.109 69.4C674.626 68.2167 675.376 67.2917 676.359 66.625C677.359 65.9583 678.593 65.625 680.059 65.625C682.109 65.625 683.668 66.2917 684.734 67.625C685.818 68.9583 686.359 70.8917 686.359 73.425V74.2H675.984C676.068 75.6667 676.443 76.875 677.109 77.825C677.793 78.7583 678.793 79.225 680.109 79.225C681.059 79.225 681.826 78.9583 682.409 78.425C682.993 77.8917 683.409 77.15 683.659 76.2H686.209C685.993 77.2167 685.634 78.1167 685.134 78.9C684.634 79.6667 683.968 80.275 683.134 80.725C682.301 81.1583 681.284 81.375 680.084 81.375ZM676.009 72.25H683.734C683.684 70.8 683.334 69.6917 682.684 68.925C682.034 68.1583 681.151 67.775 680.034 67.775C678.851 67.775 677.918 68.1667 677.234 68.95C676.568 69.7333 676.159 70.8333 676.009 72.25ZM689.698 81V66H692.098V68.55H692.698C692.798 68.1333 692.973 67.7167 693.223 67.3C693.473 66.8833 693.873 66.5417 694.423 66.275C694.973 65.9917 695.748 65.85 696.748 65.85H697.248V68.4H696.498C694.998 68.4 693.94 68.7917 693.323 69.575C692.706 70.3417 692.398 71.55 692.398 73.2V81H689.698ZM699.986 81V78.5C701.436 77.35 702.628 76.3833 703.561 75.6C704.511 74.8167 705.345 74.0833 706.061 73.4C707.361 72.15 708.311 71.0333 708.911 70.05C709.528 69.05 709.836 68.0083 709.836 66.925C709.836 65.8417 709.536 64.9667 708.936 64.3C708.336 63.6333 707.445 63.3 706.261 63.3C704.961 63.3 704.011 63.7083 703.411 64.525C702.811 65.325 702.511 66.3167 702.511 67.5H699.986C699.986 66.2833 700.228 65.2 700.711 64.25C701.211 63.2833 701.936 62.525 702.886 61.975C703.853 61.425 705.02 61.15 706.386 61.15C708.253 61.15 709.745 61.6417 710.861 62.625C711.978 63.6083 712.536 64.9417 712.536 66.625C712.536 68.1917 712.095 69.65 711.211 71C710.345 72.3333 709.236 73.6167 707.886 74.85C707.37 75.3333 706.736 75.8583 705.986 76.425C705.253 76.9917 704.395 77.5667 703.411 78.15V78.65H712.986V81H699.986ZM723.234 81V61.5H728.334L733.509 78.75H734.109L739.384 61.5H744.484V81H741.684V63.9H741.084L735.984 81H731.484L726.384 63.9H725.784V81H723.234ZM754.586 81.375C752.386 81.375 750.711 80.6583 749.561 79.225C748.428 77.775 747.861 75.8667 747.861 73.5C747.861 71.9333 748.111 70.5667 748.611 69.4C749.128 68.2167 749.878 67.2917 750.861 66.625C751.861 65.9583 753.095 65.625 754.561 65.625C756.611 65.625 758.17 66.2917 759.236 67.625C760.32 68.9583 760.861 70.8917 760.861 73.425V74.2H750.486C750.57 75.6667 750.945 76.875 751.611 77.825C752.295 78.7583 753.295 79.225 754.611 79.225C755.561 79.225 756.328 78.9583 756.911 78.425C757.495 77.8917 757.911 77.15 758.161 76.2H760.711C760.495 77.2167 760.136 78.1167 759.636 78.9C759.136 79.6667 758.47 80.275 757.636 80.725C756.803 81.1583 755.786 81.375 754.586 81.375ZM750.511 72.25H758.236C758.186 70.8 757.836 69.6917 757.186 68.925C756.536 68.1583 755.653 67.775 754.536 67.775C753.353 67.775 752.42 68.1667 751.736 68.95C751.07 69.7333 750.661 70.8333 750.511 72.25ZM769.85 81.375C767.65 81.375 765.975 80.6583 764.825 79.225C763.692 77.775 763.125 75.8667 763.125 73.5C763.125 71.9333 763.375 70.5667 763.875 69.4C764.392 68.2167 765.142 67.2917 766.125 66.625C767.125 65.9583 768.358 65.625 769.825 65.625C771.875 65.625 773.433 66.2917 774.5 67.625C775.583 68.9583 776.125 70.8917 776.125 73.425V74.2H765.75C765.833 75.6667 766.208 76.875 766.875 77.825C767.558 78.7583 768.558 79.225 769.875 79.225C770.825 79.225 771.592 78.9583 772.175 78.425C772.758 77.8917 773.175 77.15 773.425 76.2H775.975C775.758 77.2167 775.4 78.1167 774.9 78.9C774.4 79.6667 773.733 80.275 772.9 80.725C772.067 81.1583 771.05 81.375 769.85 81.375ZM765.775 72.25H773.5C773.45 70.8 773.1 69.6917 772.45 68.925C771.8 68.1583 770.917 67.775 769.8 67.775C768.617 67.775 767.683 68.1667 767 68.95C766.333 69.7333 765.925 70.8333 765.775 72.25ZM781.289 81C780.922 80.55 780.622 80.0083 780.389 79.375C780.172 78.7417 780.064 77.7917 780.064 76.525V68.1H778.014V66H780.114V62.25H782.714V66H785.264V68.1H782.764V76.1C782.764 77.4667 782.905 78.4917 783.189 79.175C783.489 79.8417 783.847 80.4 784.264 80.85V81H781.289ZM792.973 81.375C791.223 81.375 789.948 80.8333 789.148 79.75C788.365 78.6667 787.973 77.2917 787.973 75.625V66H790.673V75.05C790.673 76.35 790.907 77.35 791.373 78.05C791.84 78.7333 792.565 79.075 793.548 79.075C794.782 79.075 795.732 78.6 796.398 77.65C797.082 76.6833 797.423 75.4917 797.423 74.075V66H800.123V81H797.723V78.75H797.123C796.857 79.5833 796.365 80.2333 795.648 80.7C794.948 81.15 794.057 81.375 792.973 81.375ZM804.433 86V66H806.833V67.95H807.433C807.7 67.35 808.175 66.8167 808.858 66.35C809.542 65.8667 810.458 65.625 811.608 65.625C812.892 65.625 813.983 65.95 814.883 66.6C815.783 67.2333 816.467 68.1417 816.933 69.325C817.417 70.5083 817.658 71.9 817.658 73.5C817.658 75.0833 817.417 76.4667 816.933 77.65C816.467 78.8333 815.783 79.75 814.883 80.4C814 81.05 812.925 81.375 811.658 81.375C810.642 81.375 809.817 81.175 809.183 80.775C808.55 80.375 808.067 79.85 807.733 79.2H807.133V86H804.433ZM811.133 79.125C812.35 79.125 813.283 78.6333 813.933 77.65C814.583 76.6667 814.908 75.2833 814.908 73.5C814.908 71.7167 814.583 70.3333 813.933 69.35C813.283 68.3667 812.35 67.875 811.133 67.875C809.883 67.875 808.892 68.3917 808.158 69.425C807.425 70.4583 807.058 71.8167 807.058 73.5C807.058 75.1833 807.425 76.5417 808.158 77.575C808.892 78.6083 809.883 79.125 811.133 79.125Z" fill="black"/>
<path d="M631.55 265L627.825 245.65V245.5H630.575L633.825 262.9H634.425L638.2 245.5H642.95L646.775 262.9H647.375L650.575 245.5H653.175V245.65L649.5 265H644.625L640.8 247.625H640.2L636.4 265H631.55ZM661.887 265.375C659.603 265.375 657.903 264.667 656.787 263.25C655.687 261.817 655.137 259.9 655.137 257.5C655.137 255.1 655.687 253.192 656.787 251.775C657.903 250.342 659.603 249.625 661.887 249.625C664.17 249.625 665.862 250.342 666.962 251.775C668.078 253.192 668.637 255.1 668.637 257.5C668.637 259.9 668.078 261.817 666.962 263.25C665.862 264.667 664.17 265.375 661.887 265.375ZM661.887 263.175C663.27 263.175 664.278 262.667 664.912 261.65C665.562 260.633 665.887 259.25 665.887 257.5C665.887 255.75 665.562 254.367 664.912 253.35C664.278 252.333 663.27 251.825 661.887 251.825C660.503 251.825 659.487 252.333 658.837 253.35C658.203 254.367 657.887 255.75 657.887 257.5C657.887 259.25 658.203 260.633 658.837 261.65C659.487 262.667 660.503 263.175 661.887 263.175ZM671.973 265V250H674.373V252.55H674.973C675.073 252.133 675.248 251.717 675.498 251.3C675.748 250.883 676.148 250.542 676.698 250.275C677.248 249.992 678.023 249.85 679.023 249.85H679.523V252.4H678.773C677.273 252.4 676.215 252.792 675.598 253.575C674.982 254.342 674.673 255.55 674.673 257.2V265H671.973ZM682.462 265V245H685.112V256.125H686.312L691.212 250H694.212V250.15L688.512 257.05L694.812 264.85V265H691.512L686.312 258.375H685.112V265H682.462ZM697.412 265V250H700.112V265H697.412ZM698.762 247.9C698.245 247.9 697.837 247.75 697.537 247.45C697.253 247.15 697.112 246.75 697.112 246.25C697.112 245.75 697.253 245.35 697.537 245.05C697.837 244.75 698.245 244.6 698.762 244.6C699.295 244.6 699.703 244.75 699.987 245.05C700.27 245.35 700.412 245.75 700.412 246.25C700.412 246.75 700.27 247.15 699.987 247.45C699.703 247.75 699.295 247.9 698.762 247.9ZM704.414 265V250H706.814V252.25H707.414C707.697 251.417 708.189 250.775 708.889 250.325C709.589 249.858 710.48 249.625 711.564 249.625C713.314 249.625 714.58 250.167 715.364 251.25C716.164 252.317 716.564 253.692 716.564 255.375V265H713.864V255.95C713.864 254.65 713.63 253.658 713.164 252.975C712.697 252.275 711.972 251.925 710.989 251.925C709.772 251.925 708.822 252.408 708.139 253.375C707.455 254.325 707.114 255.508 707.114 256.925V265H704.414ZM726.323 270.35C725.257 270.35 724.357 270.217 723.623 269.95C722.89 269.683 722.29 269.333 721.823 268.9C721.357 268.483 721.007 268.025 720.773 267.525C720.54 267.025 720.39 266.533 720.323 266.05H723.023C723.123 266.617 723.44 267.125 723.973 267.575C724.507 268.025 725.332 268.25 726.448 268.25C727.648 268.25 728.573 267.917 729.223 267.25C729.89 266.583 730.223 265.508 730.223 264.025V262.35H729.623C729.357 263.017 728.898 263.575 728.248 264.025C727.615 264.458 726.748 264.675 725.648 264.675C723.798 264.675 722.332 264 721.248 262.65C720.182 261.3 719.648 259.45 719.648 257.1C719.648 255.567 719.882 254.242 720.348 253.125C720.832 252.008 721.515 251.15 722.398 250.55C723.298 249.933 724.365 249.625 725.598 249.625C726.748 249.625 727.632 249.858 728.248 250.325C728.882 250.792 729.34 251.333 729.623 251.95H730.223V250H732.623V264.175C732.623 266.175 732.082 267.7 730.998 268.75C729.915 269.817 728.357 270.35 726.323 270.35ZM725.973 262.425C727.257 262.425 728.248 261.933 728.948 260.95C729.648 259.95 729.998 258.683 729.998 257.15C729.998 255.583 729.64 254.317 728.923 253.35C728.223 252.367 727.248 251.875 725.998 251.875C724.832 251.875 723.932 252.333 723.298 253.25C722.665 254.167 722.348 255.467 722.348 257.15C722.348 258.833 722.657 260.133 723.273 261.05C723.907 261.967 724.807 262.425 725.973 262.425ZM750.264 265.375C748.414 265.375 746.864 264.942 745.614 264.075C744.364 263.192 743.422 261.983 742.789 260.45C742.156 258.9 741.839 257.142 741.839 255.175C741.839 253.192 742.156 251.45 742.789 249.95C743.422 248.433 744.389 247.25 745.689 246.4C746.989 245.55 748.622 245.125 750.589 245.125C752.156 245.125 753.497 245.4 754.614 245.95C755.731 246.5 756.614 247.292 757.264 248.325C757.914 249.342 758.322 250.567 758.489 252H755.739C755.539 250.533 754.989 249.4 754.089 248.6C753.206 247.783 751.997 247.375 750.464 247.375C748.497 247.375 747.039 248.075 746.089 249.475C745.156 250.875 744.689 252.767 744.689 255.15C744.689 257.7 745.189 259.675 746.189 261.075C747.206 262.475 748.672 263.175 750.589 263.175C752.222 263.175 753.497 262.692 754.414 261.725C755.331 260.758 755.831 259.417 755.914 257.7H749.539V255.45H758.539V265H756.289V262.6H755.689C755.322 263.35 754.714 264 753.864 264.55C753.031 265.1 751.831 265.375 750.264 265.375ZM762.735 265V250H765.135V252.55H765.735C765.835 252.133 766.01 251.717 766.26 251.3C766.51 250.883 766.91 250.542 767.46 250.275C768.01 249.992 768.785 249.85 769.785 249.85H770.285V252.4H769.535C768.035 252.4 766.977 252.792 766.36 253.575C765.743 254.342 765.435 255.55 765.435 257.2V265H762.735ZM778.4 265.375C776.117 265.375 774.417 264.667 773.3 263.25C772.2 261.817 771.65 259.9 771.65 257.5C771.65 255.1 772.2 253.192 773.3 251.775C774.417 250.342 776.117 249.625 778.4 249.625C780.684 249.625 782.375 250.342 783.475 251.775C784.592 253.192 785.15 255.1 785.15 257.5C785.15 259.9 784.592 261.817 783.475 263.25C782.375 264.667 780.684 265.375 778.4 265.375ZM778.4 263.175C779.784 263.175 780.792 262.667 781.425 261.65C782.075 260.633 782.4 259.25 782.4 257.5C782.4 255.75 782.075 254.367 781.425 253.35C780.792 252.333 779.784 251.825 778.4 251.825C777.017 251.825 776 252.333 775.35 253.35C774.717 254.367 774.4 255.75 774.4 257.5C774.4 259.25 774.717 260.633 775.35 261.65C776 262.667 777.017 263.175 778.4 263.175ZM793.237 265.375C791.487 265.375 790.212 264.833 789.412 263.75C788.629 262.667 788.237 261.292 788.237 259.625V250H790.937V259.05C790.937 260.35 791.17 261.35 791.637 262.05C792.104 262.733 792.829 263.075 793.812 263.075C795.045 263.075 795.995 262.6 796.662 261.65C797.345 260.683 797.687 259.492 797.687 258.075V250H800.387V265H797.987V262.75H797.387C797.12 263.583 796.629 264.233 795.912 264.7C795.212 265.15 794.32 265.375 793.237 265.375ZM804.697 270V250H807.097V251.95H807.697C807.964 251.35 808.439 250.817 809.122 250.35C809.805 249.867 810.722 249.625 811.872 249.625C813.155 249.625 814.247 249.95 815.147 250.6C816.047 251.233 816.73 252.142 817.197 253.325C817.68 254.508 817.922 255.9 817.922 257.5C817.922 259.083 817.68 260.467 817.197 261.65C816.73 262.833 816.047 263.75 815.147 264.4C814.264 265.05 813.189 265.375 811.922 265.375C810.905 265.375 810.08 265.175 809.447 264.775C808.814 264.375 808.33 263.85 807.997 263.2H807.397V270H804.697ZM811.397 263.125C812.614 263.125 813.547 262.633 814.197 261.65C814.847 260.667 815.172 259.283 815.172 257.5C815.172 255.717 814.847 254.333 814.197 253.35C813.547 252.367 812.614 251.875 811.397 251.875C810.147 251.875 809.155 252.392 808.422 253.425C807.689 254.458 807.322 255.817 807.322 257.5C807.322 259.183 807.689 260.542 808.422 261.575C809.155 262.608 810.147 263.125 811.397 263.125Z" fill="black"/>
<path d="M629.25 332V312.5H635.95C638.233 312.5 639.908 312.933 640.975 313.8C642.058 314.65 642.6 315.792 642.6 317.225C642.6 318.125 642.358 318.925 641.875 319.625C641.408 320.325 640.683 320.792 639.7 321.025V321.625C640.95 321.842 641.892 322.358 642.525 323.175C643.175 323.975 643.5 325.017 643.5 326.3C643.5 328 642.917 329.375 641.75 330.425C640.583 331.475 638.783 332 636.35 332H629.25ZM632 329.75H636.325C637.858 329.75 638.967 329.442 639.65 328.825C640.35 328.192 640.7 327.3 640.7 326.15C640.7 325.033 640.358 324.167 639.675 323.55C638.992 322.933 637.892 322.625 636.375 322.625H632V329.75ZM632 320.45H636C637.3 320.45 638.267 320.217 638.9 319.75C639.533 319.283 639.85 318.567 639.85 317.6C639.85 315.7 638.567 314.75 636 314.75H632V320.45ZM647.74 332C647.374 331.55 647.074 331.008 646.84 330.375C646.624 329.742 646.515 328.792 646.515 327.525V312H649.215V327.175C649.215 328.508 649.357 329.508 649.64 330.175C649.94 330.842 650.299 331.4 650.715 331.85V332H647.74ZM659.367 332.375C657.084 332.375 655.384 331.667 654.267 330.25C653.167 328.817 652.617 326.9 652.617 324.5C652.617 322.1 653.167 320.192 654.267 318.775C655.384 317.342 657.084 316.625 659.367 316.625C661.651 316.625 663.342 317.342 664.442 318.775C665.559 320.192 666.117 322.1 666.117 324.5C666.117 326.9 665.559 328.817 664.442 330.25C663.342 331.667 661.651 332.375 659.367 332.375ZM659.367 330.175C660.751 330.175 661.759 329.667 662.392 328.65C663.042 327.633 663.367 326.25 663.367 324.5C663.367 322.75 663.042 321.367 662.392 320.35C661.759 319.333 660.751 318.825 659.367 318.825C657.984 318.825 656.967 319.333 656.317 320.35C655.684 321.367 655.367 322.75 655.367 324.5C655.367 326.25 655.684 327.633 656.317 328.65C656.967 329.667 657.984 330.175 659.367 330.175ZM674.904 332.375C672.737 332.375 671.104 331.658 670.004 330.225C668.921 328.775 668.379 326.867 668.379 324.5C668.379 322.1 668.929 320.192 670.029 318.775C671.146 317.342 672.771 316.625 674.904 316.625C676.654 316.625 678.062 317.117 679.129 318.1C680.212 319.067 680.871 320.45 681.104 322.25H678.479C678.329 321.183 677.962 320.35 677.379 319.75C676.796 319.133 675.996 318.825 674.979 318.825C673.662 318.825 672.687 319.333 672.054 320.35C671.437 321.367 671.129 322.75 671.129 324.5C671.129 326.25 671.437 327.633 672.054 328.65C672.687 329.667 673.662 330.175 674.979 330.175C675.996 330.175 676.796 329.875 677.379 329.275C677.962 328.658 678.329 327.817 678.479 326.75H681.104C680.837 328.567 680.171 329.958 679.104 330.925C678.037 331.892 676.637 332.375 674.904 332.375ZM684.19 332V312H686.84V323.125H688.04L692.94 317H695.94V317.15L690.24 324.05L696.54 331.85V332H693.24L688.04 325.375H686.84V332H684.19ZM712.596 332.375C709.913 332.375 707.813 331.492 706.296 329.725C704.796 327.942 704.046 325.45 704.046 322.25C704.046 319.033 704.804 316.542 706.321 314.775C707.838 313.008 709.929 312.125 712.596 312.125C714.146 312.125 715.488 312.425 716.621 313.025C717.771 313.608 718.679 314.433 719.346 315.5C720.029 316.567 720.438 317.817 720.571 319.25H717.746C717.579 317.767 717.038 316.583 716.121 315.7C715.221 314.817 714.029 314.375 712.546 314.375C710.729 314.375 709.329 315.067 708.346 316.45C707.379 317.817 706.896 319.75 706.896 322.25C706.896 324.767 707.388 326.708 708.371 328.075C709.371 329.442 710.754 330.125 712.521 330.125C714.088 330.125 715.313 329.658 716.196 328.725C717.096 327.792 717.613 326.633 717.746 325.25H720.571C720.438 326.667 720.029 327.917 719.346 329C718.679 330.067 717.779 330.9 716.646 331.5C715.513 332.083 714.163 332.375 712.596 332.375ZM729.357 332.375C727.074 332.375 725.374 331.667 724.257 330.25C723.157 328.817 722.607 326.9 722.607 324.5C722.607 322.1 723.157 320.192 724.257 318.775C725.374 317.342 727.074 316.625 729.357 316.625C731.641 316.625 733.332 317.342 734.432 318.775C735.549 320.192 736.107 322.1 736.107 324.5C736.107 326.9 735.549 328.817 734.432 330.25C733.332 331.667 731.641 332.375 729.357 332.375ZM729.357 330.175C730.741 330.175 731.749 329.667 732.382 328.65C733.032 327.633 733.357 326.25 733.357 324.5C733.357 322.75 733.032 321.367 732.382 320.35C731.749 319.333 730.741 318.825 729.357 318.825C727.974 318.825 726.957 319.333 726.307 320.35C725.674 321.367 725.357 322.75 725.357 324.5C725.357 326.25 725.674 327.633 726.307 328.65C726.957 329.667 727.974 330.175 729.357 330.175ZM739.394 332V317H741.794V319.25H742.394C742.677 318.417 743.169 317.775 743.869 317.325C744.569 316.858 745.461 316.625 746.544 316.625C748.294 316.625 749.561 317.167 750.344 318.25C751.144 319.317 751.544 320.692 751.544 322.375V332H748.844V322.95C748.844 321.65 748.611 320.658 748.144 319.975C747.677 319.275 746.952 318.925 745.969 318.925C744.752 318.925 743.802 319.408 743.119 320.375C742.436 321.325 742.094 322.508 742.094 323.925V332H739.394ZM756.454 332V319.1H754.254V317H756.454V316.025C756.454 315.275 756.579 314.592 756.829 313.975C757.079 313.358 757.504 312.867 758.104 312.5C758.704 312.133 759.521 311.95 760.554 311.95C760.921 311.95 761.237 311.975 761.504 312.025V314.175C761.337 314.125 761.087 314.1 760.754 314.1C760.021 314.1 759.554 314.283 759.354 314.65C759.154 315 759.054 315.467 759.054 316.05V317H761.504V319.1H759.054V332H756.454ZM770.114 332.375C767.914 332.375 766.239 331.658 765.089 330.225C763.955 328.775 763.389 326.867 763.389 324.5C763.389 322.933 763.639 321.567 764.139 320.4C764.655 319.217 765.405 318.292 766.389 317.625C767.389 316.958 768.622 316.625 770.089 316.625C772.139 316.625 773.697 317.292 774.764 318.625C775.847 319.958 776.389 321.892 776.389 324.425V325.2H766.014C766.097 326.667 766.472 327.875 767.139 328.825C767.822 329.758 768.822 330.225 770.139 330.225C771.089 330.225 771.855 329.958 772.439 329.425C773.022 328.892 773.439 328.15 773.689 327.2H776.239C776.022 328.217 775.664 329.117 775.164 329.9C774.664 330.667 773.997 331.275 773.164 331.725C772.33 332.158 771.314 332.375 770.114 332.375ZM766.039 323.25H773.764C773.714 321.8 773.364 320.692 772.714 319.925C772.064 319.158 771.18 318.775 770.064 318.775C768.88 318.775 767.947 319.167 767.264 319.95C766.597 320.733 766.189 321.833 766.039 323.25ZM779.727 332V317H782.127V319.55H782.727C782.827 319.133 783.002 318.717 783.252 318.3C783.502 317.883 783.902 317.542 784.452 317.275C785.002 316.992 785.777 316.85 786.777 316.85H787.277V319.4H786.527C785.027 319.4 783.969 319.792 783.352 320.575C782.736 321.342 782.427 322.55 782.427 324.2V332H779.727ZM795.368 332.375C793.168 332.375 791.493 331.658 790.343 330.225C789.209 328.775 788.643 326.867 788.643 324.5C788.643 322.933 788.893 321.567 789.393 320.4C789.909 319.217 790.659 318.292 791.643 317.625C792.643 316.958 793.876 316.625 795.343 316.625C797.393 316.625 798.951 317.292 800.018 318.625C801.101 319.958 801.643 321.892 801.643 324.425V325.2H791.268C791.351 326.667 791.726 327.875 792.393 328.825C793.076 329.758 794.076 330.225 795.393 330.225C796.343 330.225 797.109 329.958 797.693 329.425C798.276 328.892 798.693 328.15 798.943 327.2H801.493C801.276 328.217 800.918 329.117 800.418 329.9C799.918 330.667 799.251 331.275 798.418 331.725C797.584 332.158 796.568 332.375 795.368 332.375ZM791.293 323.25H799.018C798.968 321.8 798.618 320.692 797.968 319.925C797.318 319.158 796.434 318.775 795.318 318.775C794.134 318.775 793.201 319.167 792.518 319.95C791.851 320.733 791.443 321.833 791.293 323.25ZM804.931 332V317H807.331V319.25H807.931C808.215 318.417 808.706 317.775 809.406 317.325C810.106 316.858 810.998 316.625 812.081 316.625C813.831 316.625 815.098 317.167 815.881 318.25C816.681 319.317 817.081 320.692 817.081 322.375V332H814.381V322.95C814.381 321.65 814.148 320.658 813.681 319.975C813.215 319.275 812.49 318.925 811.506 318.925C810.29 318.925 809.34 319.408 808.656 320.375C807.973 321.325 807.631 322.508 807.631 323.925V332H804.931ZM826.691 332.375C824.524 332.375 822.891 331.658 821.791 330.225C820.708 328.775 820.166 326.867 820.166 324.5C820.166 322.1 820.716 320.192 821.816 318.775C822.933 317.342 824.558 316.625 826.691 316.625C828.441 316.625 829.849 317.117 830.916 318.1C831.999 319.067 832.658 320.45 832.891 322.25H830.266C830.116 321.183 829.749 320.35 829.166 319.75C828.583 319.133 827.783 318.825 826.766 318.825C825.449 318.825 824.474 319.333 823.841 320.35C823.224 321.367 822.916 322.75 822.916 324.5C822.916 326.25 823.224 327.633 823.841 328.65C824.474 329.667 825.449 330.175 826.766 330.175C827.783 330.175 828.583 329.875 829.166 329.275C829.749 328.658 830.116 327.817 830.266 326.75H832.891C832.624 328.567 831.958 329.958 830.891 330.925C829.824 331.892 828.424 332.375 826.691 332.375ZM841.627 332.375C839.427 332.375 837.752 331.658 836.602 330.225C835.469 328.775 834.902 326.867 834.902 324.5C834.902 322.933 835.152 321.567 835.652 320.4C836.169 319.217 836.919 318.292 837.902 317.625C838.902 316.958 840.136 316.625 841.602 316.625C843.652 316.625 845.211 317.292 846.277 318.625C847.361 319.958 847.902 321.892 847.902 324.425V325.2H837.527C837.611 326.667 837.986 327.875 838.652 328.825C839.336 329.758 840.336 330.225 841.652 330.225C842.602 330.225 843.369 329.958 843.952 329.425C844.536 328.892 844.952 328.15 845.202 327.2H847.752C847.536 328.217 847.177 329.117 846.677 329.9C846.177 330.667 845.511 331.275 844.677 331.725C843.844 332.158 842.827 332.375 841.627 332.375ZM837.552 323.25H845.277C845.227 321.8 844.877 320.692 844.227 319.925C843.577 319.158 842.694 318.775 841.577 318.775C840.394 318.775 839.461 319.167 838.777 319.95C838.111 320.733 837.702 321.833 837.552 323.25Z" fill="black"/>
<path d="M5.25 198V178.5H8.05V195.65H17.25V198H5.25ZM24.677 198.375C23.3936 198.375 22.302 198.05 21.402 197.4C20.502 196.75 19.8103 195.842 19.327 194.675C18.8603 193.492 18.627 192.1 18.627 190.5C18.627 188.9 18.8603 187.517 19.327 186.35C19.8103 185.167 20.502 184.25 21.402 183.6C22.3186 182.95 23.427 182.625 24.727 182.625C25.8603 182.625 26.7603 182.867 27.427 183.35C28.1103 183.817 28.5853 184.35 28.852 184.95H29.452V183H31.852V198H29.452V196.05H28.852C28.5853 196.65 28.1103 197.192 27.427 197.675C26.7436 198.142 25.827 198.375 24.677 198.375ZM25.152 196.125C26.402 196.125 27.3936 195.608 28.127 194.575C28.8603 193.542 29.227 192.183 29.227 190.5C29.227 188.817 28.8603 187.458 28.127 186.425C27.3936 185.392 26.402 184.875 25.152 184.875C23.9353 184.875 23.002 185.367 22.352 186.35C21.702 187.333 21.377 188.717 21.377 190.5C21.377 192.283 21.702 193.667 22.352 194.65C23.002 195.633 23.9353 196.125 25.152 196.125ZM36.8711 203V202.85C37.3544 202.117 37.8628 201.25 38.3961 200.25C38.9294 199.267 39.4128 198.258 39.8461 197.225L34.4461 183.15V183H37.1461L39.9461 190.5C40.1128 190.933 40.2711 191.392 40.4211 191.875C40.5878 192.342 40.7544 192.917 40.9211 193.6H41.5211C41.6878 192.917 41.8461 192.342 41.9961 191.875C42.1628 191.392 42.3294 190.933 42.4961 190.5L45.2961 183H47.7961V183.15L42.6461 196.65C42.1461 197.967 41.6294 199.183 41.0961 200.3C40.5794 201.417 40.1044 202.317 39.6711 203H36.8711ZM56.0844 198.375C53.8844 198.375 52.2094 197.658 51.0594 196.225C49.926 194.775 49.3594 192.867 49.3594 190.5C49.3594 188.933 49.6094 187.567 50.1094 186.4C50.626 185.217 51.376 184.292 52.3594 183.625C53.3594 182.958 54.5927 182.625 56.0594 182.625C58.1094 182.625 59.6677 183.292 60.7344 184.625C61.8177 185.958 62.3594 187.892 62.3594 190.425V191.2H51.9844C52.0677 192.667 52.4427 193.875 53.1094 194.825C53.7927 195.758 54.7927 196.225 56.1094 196.225C57.0594 196.225 57.826 195.958 58.4094 195.425C58.9927 194.892 59.4094 194.15 59.6594 193.2H62.2094C61.9927 194.217 61.6344 195.117 61.1344 195.9C60.6344 196.667 59.9677 197.275 59.1344 197.725C58.301 198.158 57.2844 198.375 56.0844 198.375ZM52.0094 189.25H59.7344C59.6844 187.8 59.3344 186.692 58.6844 185.925C58.0344 185.158 57.151 184.775 56.0344 184.775C54.851 184.775 53.9177 185.167 53.2344 185.95C52.5677 186.733 52.1594 187.833 52.0094 189.25ZM65.698 198V183H68.098V185.55H68.698C68.798 185.133 68.973 184.717 69.223 184.3C69.473 183.883 69.873 183.542 70.423 183.275C70.973 182.992 71.748 182.85 72.748 182.85H73.248V185.4H72.498C70.998 185.4 69.9397 185.792 69.323 186.575C68.7064 187.342 68.398 188.55 68.398 190.2V198H65.698ZM82.6422 198V195.85H87.2922V184.25H82.9922V182.3L84.2922 182.25C84.9255 182.217 85.4839 182.125 85.9672 181.975C86.4505 181.808 86.8505 181.467 87.1672 180.95C87.5005 180.417 87.7589 179.6 87.9422 178.5H89.9922V195.85H94.3422V198H82.6422Z" fill="#002060"/>
<rect x="307" y="218" width="224" height="224" fill="#F0F4FE"/>
<rect x="325" y="305" width="50" height="50" fill="#002060"/>
<rect x="395" y="305" width="50" height="50" fill="#002060"/>
<rect x="462" y="305" width="50" height="50" fill="#002060"/>
<rect x="325" y="240" width="50" height="50" fill="#002060"/>
<rect x="325" y="370" width="50" height="50" fill="#002060"/>
<rect x="395" y="370" width="50" height="50" fill="#002060"/>
<rect x="465" y="370" width="50" height="50" fill="#002060"/>
<line x1="237" y1="328.5" x2="464" y2="328.5" stroke="#002060" stroke-width="3"/>
<line y1="80.5" x2="416" y2="80.5" stroke="#6890F5" stroke-width="3"/>
<path d="M416 78H616" stroke="#6890F5" stroke-width="3" stroke-dasharray="3 3"/>
<line x1="512" y1="263.5" x2="613" y2="263.5" stroke="#002060" stroke-width="3" stroke-dasharray="3 3"/>
<line x1="531" y1="328.5" x2="613" y2="328.5" stroke="#D7E3FF" stroke-width="3" stroke-dasharray="3 3"/>
<line x1="1" y1="328.5" x2="184" y2="328.5" stroke="#002060" stroke-width="3"/>
<path d="M39 218H263V442H39V218Z" fill="#F0F4FE"/>
<rect x="135" y="44" width="75" height="75" fill="#6890F5"/>
<rect x="237" y="44" width="75" height="75" fill="#6890F5"/>
<rect x="395" y="240" width="50" height="50" fill="#002060"/>
<rect x="462" y="240" width="50" height="50" fill="#002060"/>
</svg>
