<svg width="559" height="559" viewBox="0 0 559 559" fill="none" xmlns="http://www.w3.org/2000/svg">
<path d="M93.7099 0.449951L0.689941 93.4599V558.52H465.75L558.76 465.51V0.449951H93.7099Z" fill="#8119FF"/>
<path d="M121.73 44.0399L42.6399 123.13V518.55H438.07L517.16 439.47V44.0399H121.73Z" fill="#9238FF"/>
<path d="M149.76 87.6299L84.5999 152.79V478.58H410.39L475.56 413.42V87.6299H149.76Z" fill="#A356FF"/>
<path d="M177.78 131.21L126.55 182.45V438.62H382.72L433.95 387.38V131.21H177.78Z" fill="#B375FF"/>
<path d="M205.81 174.8L168.5 212.11V398.65H355.04L392.35 361.34V174.8H205.81Z" fill="#C494FF"/>
<path d="M233.84 218.38L210.45 241.77V358.68H327.37L350.75 335.3V218.38H233.84Z" fill="#D5B2FF"/>
<path d="M261.86 261.97L252.4 271.43V318.71H299.69L309.15 309.26V261.97H261.86Z" fill="#E6D1FF"/>
</svg>
