<svg width="557" height="558" viewBox="0 0 557 558" fill="none" xmlns="http://www.w3.org/2000/svg">
<path d="M485.56 0.780029L471.29 15.05V86.4H542.64L556.91 72.13V0.780029H485.56Z" fill="#19A7FF"/>
<path d="M391.38 0.780029L377.11 15.05V86.4H448.46L462.73 72.13V0.780029H391.38Z" fill="#3EB5FF"/>
<path d="M297.19 0.780029L282.92 15.05V86.4H354.27L368.54 72.13V0.780029H297.19Z" fill="#63C3FF"/>
<path d="M203.01 0.780029L188.74 15.05V86.4H260.08L274.35 72.13V0.780029H203.01Z" fill="#87D1FF"/>
<path d="M108.82 0.780029L94.55 15.05V86.4H165.9L180.17 72.13V0.780029H108.82Z" fill="#ACDFFF"/>
<path d="M14.6301 0.780029L0.360107 15.05V86.4H71.7101L85.9801 72.13V0.780029H14.6301Z" fill="#D1EDFF"/>
<path d="M485.56 95.09L471.29 109.36V180.71H542.64L556.91 166.44V95.09H485.56Z" fill="#19A7FF"/>
<path d="M391.38 95.09L377.11 109.36V180.7H448.46L462.73 166.43V95.09H391.38Z" fill="#3EB5FF"/>
<path d="M297.19 95.09L282.92 109.36V180.7H354.27L368.54 166.43V95.09H297.19Z" fill="#63C3FF"/>
<path d="M203.01 95.09L188.74 109.36V180.7H260.08L274.35 166.43V95.09H203.01Z" fill="#87D1FF"/>
<path d="M108.82 95.09L94.55 109.36V180.7H165.9L180.17 166.43V95.09H108.82Z" fill="#ACDFFF"/>
<path d="M14.6301 95.09L0.360107 109.36V180.71H71.7101L85.9801 166.44V95.09H14.6301Z" fill="#D1EDFF"/>
<path d="M485.56 189.39L471.29 203.66V275.01H542.64L556.91 260.74V189.39H485.56Z" fill="#19A7FF"/>
<path d="M391.38 189.39L377.11 203.66V275.01H448.46L462.73 260.74V189.39H391.38Z" fill="#3EB5FF"/>
<path d="M297.19 189.39L282.92 203.66V275.01H354.27L368.54 260.74V189.39H297.19Z" fill="#63C3FF"/>
<path d="M203.01 189.39L188.74 203.66V275.01H260.08L274.35 260.74V189.39H203.01Z" fill="#87D1FF"/>
<path d="M108.82 189.39L94.55 203.66V275.01H165.9L180.17 260.74V189.39H108.82Z" fill="#ACDFFF"/>
<path d="M14.6301 189.39L0.360107 203.66V275.01H71.7101L85.9801 260.74V189.39H14.6301Z" fill="#D1EDFF"/>
<path d="M485.56 283.7L471.29 297.97V369.32H542.64L556.91 355.05V283.7H485.56Z" fill="#19A7FF"/>
<path d="M391.38 283.7L377.11 297.97V369.32H448.46L462.73 355.05V283.7H391.38Z" fill="#3EB5FF"/>
<path d="M297.19 283.7L282.92 297.97V369.32H354.27L368.54 355.05V283.7H297.19Z" fill="#63C3FF"/>
<path d="M203.01 283.7L188.74 297.97V369.32H260.08L274.35 355.05V283.7H203.01Z" fill="#87D1FF"/>
<path d="M108.82 283.7L94.55 297.97V369.32H165.9L180.17 355.05V283.7H108.82Z" fill="#ACDFFF"/>
<path d="M14.6301 283.7L0.360107 297.97V369.32H71.7101L85.9801 355.05V283.7H14.6301Z" fill="#D1EDFF"/>
<path d="M485.56 378.01L471.29 392.28V463.63H542.64L556.91 449.36V378.01H485.56Z" fill="#19A7FF"/>
<path d="M391.38 378.01L377.11 392.28V463.62H448.46L462.73 449.35V378.01H391.38Z" fill="#3EB5FF"/>
<path d="M297.19 378.01L282.92 392.28V463.62H354.27L368.54 449.35V378.01H297.19Z" fill="#63C3FF"/>
<path d="M203.01 378.01L188.74 392.28V463.62H260.08L274.35 449.35V378.01H203.01Z" fill="#87D1FF"/>
<path d="M108.82 378.01L94.55 392.28V463.62H165.9L180.17 449.35V378.01H108.82Z" fill="#ACDFFF"/>
<path d="M14.6301 378.01L0.360107 392.28V463.63H71.7101L85.9801 449.36V378.01H14.6301Z" fill="#D1EDFF"/>
<path d="M485.56 472.31L471.29 486.58V557.93H542.64L556.91 543.66V472.31H485.56Z" fill="#19A7FF"/>
<path d="M391.38 472.31L377.11 486.58V557.93H448.46L462.73 543.66V472.31H391.38Z" fill="#3EB5FF"/>
<path d="M297.19 472.31L282.92 486.58V557.93H354.27L368.54 543.66V472.31H297.19Z" fill="#63C3FF"/>
<path d="M203.01 472.31L188.74 486.58V557.93H260.08L274.35 543.66V472.31H203.01Z" fill="#87D1FF"/>
<path d="M108.82 472.31L94.55 486.58V557.93H165.9L180.17 543.66V472.31H108.82Z" fill="#ACDFFF"/>
<path d="M14.6301 472.31L0.360107 486.58V557.93H71.7101L85.9801 543.66V472.31H14.6301Z" fill="#D1EDFF"/>
</svg>
