<svg width="416" height="119" viewBox="0 0 416 119" fill="none" xmlns="http://www.w3.org/2000/svg">
<path d="M4.25 33V13.5H7.05V30.65H16.25V33H4.25ZM23.677 33.375C22.3936 33.375 21.302 33.05 20.402 32.4C19.502 31.75 18.8103 30.8417 18.327 29.675C17.8603 28.4917 17.627 27.1 17.627 25.5C17.627 23.9 17.8603 22.5167 18.327 21.35C18.8103 20.1667 19.502 19.25 20.402 18.6C21.3186 17.95 22.427 17.625 23.727 17.625C24.8603 17.625 25.7603 17.8667 26.427 18.35C27.1103 18.8167 27.5853 19.35 27.852 19.95H28.452V18H30.852V33H28.452V31.05H27.852C27.5853 31.65 27.1103 32.1917 26.427 32.675C25.7436 33.1417 24.827 33.375 23.677 33.375ZM24.152 31.125C25.402 31.125 26.3936 30.6083 27.127 29.575C27.8603 28.5417 28.227 27.1833 28.227 25.5C28.227 23.8167 27.8603 22.4583 27.127 21.425C26.3936 20.3917 25.402 19.875 24.152 19.875C22.9353 19.875 22.002 20.3667 21.352 21.35C20.702 22.3333 20.377 23.7167 20.377 25.5C20.377 27.2833 20.702 28.6667 21.352 29.65C22.002 30.6333 22.9353 31.125 24.152 31.125ZM35.8711 38V37.85C36.3544 37.1167 36.8628 36.25 37.3961 35.25C37.9294 34.2667 38.4128 33.2583 38.8461 32.225L33.4461 18.15V18H36.1461L38.9461 25.5C39.1128 25.9333 39.2711 26.3917 39.4211 26.875C39.5878 27.3417 39.7544 27.9167 39.9211 28.6H40.5211C40.6878 27.9167 40.8461 27.3417 40.9961 26.875C41.1628 26.3917 41.3294 25.9333 41.4961 25.5L44.2961 18H46.7961V18.15L41.6461 31.65C41.1461 32.9667 40.6294 34.1833 40.0961 35.3C39.5794 36.4167 39.1044 37.3167 38.6711 38H35.8711ZM55.0844 33.375C52.8844 33.375 51.2094 32.6583 50.0594 31.225C48.926 29.775 48.3594 27.8667 48.3594 25.5C48.3594 23.9333 48.6094 22.5667 49.1094 21.4C49.626 20.2167 50.376 19.2917 51.3594 18.625C52.3594 17.9583 53.5927 17.625 55.0594 17.625C57.1094 17.625 58.6677 18.2917 59.7344 19.625C60.8177 20.9583 61.3594 22.8917 61.3594 25.425V26.2H50.9844C51.0677 27.6667 51.4427 28.875 52.1094 29.825C52.7927 30.7583 53.7927 31.225 55.1094 31.225C56.0594 31.225 56.826 30.9583 57.4094 30.425C57.9927 29.8917 58.4094 29.15 58.6594 28.2H61.2094C60.9927 29.2167 60.6344 30.1167 60.1344 30.9C59.6344 31.6667 58.9677 32.275 58.1344 32.725C57.301 33.1583 56.2844 33.375 55.0844 33.375ZM51.0094 24.25H58.7344C58.6844 22.8 58.3344 21.6917 57.6844 20.925C57.0344 20.1583 56.151 19.775 55.0344 19.775C53.851 19.775 52.9177 20.1667 52.2344 20.95C51.5677 21.7333 51.1594 22.8333 51.0094 24.25ZM64.698 33V18H67.098V20.55H67.698C67.798 20.1333 67.973 19.7167 68.223 19.3C68.473 18.8833 68.873 18.5417 69.423 18.275C69.973 17.9917 70.748 17.85 71.748 17.85H72.248V20.4H71.498C69.998 20.4 68.9397 20.7917 68.323 21.575C67.7064 22.3417 67.398 23.55 67.398 25.2V33H64.698ZM80.9922 33V30.5C82.4422 29.35 83.6339 28.3833 84.5672 27.6C85.5172 26.8167 86.3505 26.0833 87.0672 25.4C88.3672 24.15 89.3172 23.0333 89.9172 22.05C90.5339 21.05 90.8422 20.0083 90.8422 18.925C90.8422 17.8417 90.5422 16.9667 89.9422 16.3C89.3422 15.6333 88.4505 15.3 87.2672 15.3C85.9672 15.3 85.0172 15.7083 84.4172 16.525C83.8172 17.325 83.5172 18.3167 83.5172 19.5H80.9922C80.9922 18.2833 81.2339 17.2 81.7172 16.25C82.2172 15.2833 82.9422 14.525 83.8922 13.975C84.8589 13.425 86.0255 13.15 87.3922 13.15C89.2589 13.15 90.7505 13.6417 91.8672 14.625C92.9839 15.6083 93.5422 16.9417 93.5422 18.625C93.5422 20.1917 93.1005 21.65 92.2172 23C91.3505 24.3333 90.2422 25.6167 88.8922 26.85C88.3755 27.3333 87.7422 27.8583 86.9922 28.425C86.2589 28.9917 85.4005 29.5667 84.4172 30.15V30.65H93.9922V33H80.9922Z" fill="#6890F5"/>
<line y1="80.5" x2="416" y2="80.5" stroke="#6890F5" stroke-width="3"/>
<rect x="341" y="44" width="75" height="75" fill="#6890F5"/>
<rect x="135" y="44" width="75" height="75" fill="#6890F5"/>
<rect x="240" y="44" width="75" height="75" fill="#6890F5"/>
</svg>
