<svg width="687" height="313" viewBox="0 0 687 313" fill="none" xmlns="http://www.w3.org/2000/svg">
<path d="M4.25 69V49.5H7.05V66.65H16.25V69H4.25ZM23.677 69.375C22.3936 69.375 21.302 69.05 20.402 68.4C19.502 67.75 18.8103 66.8417 18.327 65.675C17.8603 64.4917 17.627 63.1 17.627 61.5C17.627 59.9 17.8603 58.5167 18.327 57.35C18.8103 56.1667 19.502 55.25 20.402 54.6C21.3186 53.95 22.427 53.625 23.727 53.625C24.8603 53.625 25.7603 53.8667 26.427 54.35C27.1103 54.8167 27.5853 55.35 27.852 55.95H28.452V54H30.852V69H28.452V67.05H27.852C27.5853 67.65 27.1103 68.1917 26.427 68.675C25.7436 69.1417 24.827 69.375 23.677 69.375ZM24.152 67.125C25.402 67.125 26.3936 66.6083 27.127 65.575C27.8603 64.5417 28.227 63.1833 28.227 61.5C28.227 59.8167 27.8603 58.4583 27.127 57.425C26.3936 56.3917 25.402 55.875 24.152 55.875C22.9353 55.875 22.002 56.3667 21.352 57.35C20.702 58.3333 20.377 59.7167 20.377 61.5C20.377 63.2833 20.702 64.6667 21.352 65.65C22.002 66.6333 22.9353 67.125 24.152 67.125ZM35.8711 74V73.85C36.3544 73.1167 36.8628 72.25 37.3961 71.25C37.9294 70.2667 38.4128 69.2583 38.8461 68.225L33.4461 54.15V54H36.1461L38.9461 61.5C39.1128 61.9333 39.2711 62.3917 39.4211 62.875C39.5878 63.3417 39.7544 63.9167 39.9211 64.6H40.5211C40.6878 63.9167 40.8461 63.3417 40.9961 62.875C41.1628 62.3917 41.3294 61.9333 41.4961 61.5L44.2961 54H46.7961V54.15L41.6461 67.65C41.1461 68.9667 40.6294 70.1833 40.0961 71.3C39.5794 72.4167 39.1044 73.3167 38.6711 74H35.8711ZM55.0844 69.375C52.8844 69.375 51.2094 68.6583 50.0594 67.225C48.926 65.775 48.3594 63.8667 48.3594 61.5C48.3594 59.9333 48.6094 58.5667 49.1094 57.4C49.626 56.2167 50.376 55.2917 51.3594 54.625C52.3594 53.9583 53.5927 53.625 55.0594 53.625C57.1094 53.625 58.6677 54.2917 59.7344 55.625C60.8177 56.9583 61.3594 58.8917 61.3594 61.425V62.2H50.9844C51.0677 63.6667 51.4427 64.875 52.1094 65.825C52.7927 66.7583 53.7927 67.225 55.1094 67.225C56.0594 67.225 56.826 66.9583 57.4094 66.425C57.9927 65.8917 58.4094 65.15 58.6594 64.2H61.2094C60.9927 65.2167 60.6344 66.1167 60.1344 66.9C59.6344 67.6667 58.9677 68.275 58.1344 68.725C57.301 69.1583 56.2844 69.375 55.0844 69.375ZM51.0094 60.25H58.7344C58.6844 58.8 58.3344 57.6917 57.6844 56.925C57.0344 56.1583 56.151 55.775 55.0344 55.775C53.851 55.775 52.9177 56.1667 52.2344 56.95C51.5677 57.7333 51.1594 58.8333 51.0094 60.25ZM64.698 69V54H67.098V56.55H67.698C67.798 56.1333 67.973 55.7167 68.223 55.3C68.473 54.8833 68.873 54.5417 69.423 54.275C69.973 53.9917 70.748 53.85 71.748 53.85H72.248V56.4H71.498C69.998 56.4 68.9397 56.7917 68.323 57.575C67.7064 58.3417 67.398 59.55 67.398 61.2V69H64.698ZM81.6422 69V66.85H86.2922V55.25H81.9922V53.3L83.2922 53.25C83.9255 53.2167 84.4839 53.125 84.9672 52.975C85.4505 52.8083 85.8505 52.4667 86.1672 51.95C86.5005 51.4167 86.7589 50.6 86.9422 49.5H88.9922V66.85H93.3422V69H81.6422Z" fill="#002060"/>
<rect x="463" y="89" width="224" height="224" fill="#F0F4FE"/>
<rect x="481" y="176" width="50" height="50" fill="#002060"/>
<rect x="551" y="176" width="50" height="50" fill="#002060"/>
<rect x="618" y="176" width="50" height="50" fill="#002060"/>
<rect x="481" y="111" width="50" height="50" fill="#002060"/>
<rect x="551" y="111" width="50" height="50" fill="#002060"/>
<rect x="618" y="111" width="50" height="50" fill="#002060"/>
<rect x="481" y="241" width="50" height="50" fill="#002060"/>
<rect x="551" y="241" width="50" height="50" fill="#002060"/>
<rect x="618" y="241" width="50" height="50" fill="#002060"/>
<line x1="236" y1="199.5" x2="463" y2="199.5" stroke="#002060" stroke-width="3"/>
<line y1="199.5" x2="183" y2="199.5" stroke="#002060" stroke-width="3"/>
<path d="M93 89H317V313H93V89Z" fill="#F0F4FE"/>
<path d="M455.756 83.5573C456.22 84.244 457.152 84.425 457.839 83.9615L469.029 76.4096C469.716 75.9461 469.897 75.0138 469.433 74.3271C468.97 73.6404 468.037 73.4595 467.351 73.9229L457.404 80.6357L450.691 70.689C450.228 70.0023 449.295 69.8213 448.609 70.2848C447.922 70.7482 447.741 71.6805 448.205 72.3672L455.756 83.5573ZM408.653 15.1775C434.819 21.4018 448.108 28.9898 454.144 39.3306C460.199 49.7019 459.243 63.2887 455.527 82.4324L458.472 83.004C462.169 63.9598 463.427 49.2821 456.735 37.8182C450.025 26.3237 435.608 18.5057 409.347 12.2589L408.653 15.1775Z" fill="#6890F5"/>
<path d="M377.113 19.2684C376.709 18.5452 375.795 18.2865 375.072 18.6905L363.286 25.2746C362.563 25.6786 362.304 26.5924 362.708 27.3157C363.112 28.0389 364.026 28.2976 364.749 27.8936L375.225 22.0411L381.078 32.5172C381.482 33.2404 382.396 33.4991 383.119 33.0951C383.842 32.6911 384.101 31.7772 383.697 31.054L377.113 19.2684ZM418.299 91.3676C392.749 82.9647 380.145 74.2859 375 63.474C369.839 52.6303 371.934 39.172 377.247 20.4087L374.36 19.5913C369.075 38.2572 366.587 52.777 372.291 64.7632C378.01 76.7813 391.719 85.7841 417.362 94.2174L418.299 91.3676Z" fill="#6890F5"/>
</svg>
